<?xml version="1.0" encoding="UTF-8"?>
<!--Generator: Apple Native CoreSVG 123-->
<!DOCTYPE svg
PUBLIC "-//W3C//DTD SVG 1.1//EN"
       "http://www.w3.org/Graphics/SVG/1.1/DTD/svg11.dtd">
<svg version="1.1" xmlns="http://www.w3.org/2000/svg" xmlns:xlink="http://www.w3.org/1999/xlink" width="3300" height="2200">
 <!--glyph: "uni10064B.medium", point size: 100.000000, font version: "Version 15.0d7e11", template writer version: "5"-->
 <g id="Notes">
  <rect height="2200" id="artboard" style="fill:white;opacity:1" width="3300" x="0" y="0"/>
  <line id="" style="fill:none;stroke:black;opacity:1;stroke-width:0.5;" x1="263" x2="3036" y1="292" y2="292"/>
  <text style="stroke:none;fill:black;font-family:-apple-system,&quot;SF Pro Display&quot;,&quot;SF Pro Text&quot;,Helvetica,sans-serif;font-weight:bold;" transform="matrix(1 0 0 1 263 322)">Weight/Scale Variations</text>
  <text style="stroke:none;fill:black;font-family:-apple-system,&quot;SF Pro Display&quot;,&quot;SF Pro Text&quot;,Helvetica,sans-serif;text-anchor:middle;" transform="matrix(1 0 0 1 559.711 322)">Ultralight</text>
  <text style="stroke:none;fill:black;font-family:-apple-system,&quot;SF Pro Display&quot;,&quot;SF Pro Text&quot;,Helvetica,sans-serif;text-anchor:middle;" transform="matrix(1 0 0 1 856.422 322)">Thin</text>
  <text style="stroke:none;fill:black;font-family:-apple-system,&quot;SF Pro Display&quot;,&quot;SF Pro Text&quot;,Helvetica,sans-serif;text-anchor:middle;" transform="matrix(1 0 0 1 1153.13 322)">Light</text>
  <text style="stroke:none;fill:black;font-family:-apple-system,&quot;SF Pro Display&quot;,&quot;SF Pro Text&quot;,Helvetica,sans-serif;text-anchor:middle;" transform="matrix(1 0 0 1 1449.84 322)">Regular</text>
  <text style="stroke:none;fill:black;font-family:-apple-system,&quot;SF Pro Display&quot;,&quot;SF Pro Text&quot;,Helvetica,sans-serif;text-anchor:middle;" transform="matrix(1 0 0 1 1746.56 322)">Medium</text>
  <text style="stroke:none;fill:black;font-family:-apple-system,&quot;SF Pro Display&quot;,&quot;SF Pro Text&quot;,Helvetica,sans-serif;text-anchor:middle;" transform="matrix(1 0 0 1 2043.27 322)">Semibold</text>
  <text style="stroke:none;fill:black;font-family:-apple-system,&quot;SF Pro Display&quot;,&quot;SF Pro Text&quot;,Helvetica,sans-serif;text-anchor:middle;" transform="matrix(1 0 0 1 2339.98 322)">Bold</text>
  <text style="stroke:none;fill:black;font-family:-apple-system,&quot;SF Pro Display&quot;,&quot;SF Pro Text&quot;,Helvetica,sans-serif;text-anchor:middle;" transform="matrix(1 0 0 1 2636.69 322)">Heavy</text>
  <text style="stroke:none;fill:black;font-family:-apple-system,&quot;SF Pro Display&quot;,&quot;SF Pro Text&quot;,Helvetica,sans-serif;text-anchor:middle;" transform="matrix(1 0 0 1 2933.4 322)">Black</text>
  <line id="" style="fill:none;stroke:black;opacity:1;stroke-width:0.5;" x1="263" x2="3036" y1="1903" y2="1903"/>
  <g id="" transform="matrix(1 0 0 1 263 1933)">
   <path d="M 9.24805 0.830078 C 13.5547 0.830078 17.1387 -2.74414 17.1387 -7.05078 C 17.1387 -11.3574 13.5449 -14.9316 9.23828 -14.9316 C 4.94141 -14.9316 1.36719 -11.3574 1.36719 -7.05078 C 1.36719 -2.74414 4.95117 0.830078 9.24805 0.830078 Z M 9.24805 -0.654297 C 5.70312 -0.654297 2.87109 -3.49609 2.87109 -7.05078 C 2.87109 -10.6055 5.69336 -13.4473 9.23828 -13.4473 C 12.793 -13.4473 15.6348 -10.6055 15.6445 -7.05078 C 15.6543 -3.49609 12.8027 -0.654297 9.24805 -0.654297 Z M 9.22852 -3.42773 C 9.69727 -3.42773 9.9707 -3.74023 9.9707 -4.25781 L 9.9707 -6.31836 L 12.1973 -6.31836 C 12.6953 -6.31836 13.0371 -6.57227 13.0371 -7.04102 C 13.0371 -7.51953 12.7148 -7.7832 12.1973 -7.7832 L 9.9707 -7.7832 L 9.9707 -10.0098 C 9.9707 -10.5273 9.69727 -10.8496 9.22852 -10.8496 C 8.75977 -10.8496 8.50586 -10.5078 8.50586 -10.0098 L 8.50586 -7.7832 L 6.29883 -7.7832 C 5.78125 -7.7832 5.44922 -7.51953 5.44922 -7.04102 C 5.44922 -6.57227 5.80078 -6.31836 6.29883 -6.31836 L 8.50586 -6.31836 L 8.50586 -4.25781 C 8.50586 -3.75977 8.75977 -3.42773 9.22852 -3.42773 Z"/>
  </g>
  <g id="" transform="matrix(1 0 0 1 281.506 1933)">
   <path d="M 11.709 2.91016 C 17.1582 2.91016 21.6699 -1.60156 21.6699 -7.05078 C 21.6699 -12.4902 17.1484 -17.0117 11.6992 -17.0117 C 6.25977 -17.0117 1.74805 -12.4902 1.74805 -7.05078 C 1.74805 -1.60156 6.26953 2.91016 11.709 2.91016 Z M 11.709 1.25 C 7.09961 1.25 3.41797 -2.44141 3.41797 -7.05078 C 3.41797 -11.6504 7.08984 -15.3516 11.6992 -15.3516 C 16.3086 -15.3516 20 -11.6504 20.0098 -7.05078 C 20.0195 -2.44141 16.3184 1.25 11.709 1.25 Z M 11.6895 -2.41211 C 12.207 -2.41211 12.5195 -2.77344 12.5195 -3.33984 L 12.5195 -6.23047 L 15.5762 -6.23047 C 16.123 -6.23047 16.5039 -6.51367 16.5039 -7.03125 C 16.5039 -7.55859 16.1426 -7.86133 15.5762 -7.86133 L 12.5195 -7.86133 L 12.5195 -10.9277 C 12.5195 -11.5039 12.207 -11.8555 11.6895 -11.8555 C 11.1719 -11.8555 10.8789 -11.4844 10.8789 -10.9277 L 10.8789 -7.86133 L 7.83203 -7.86133 C 7.26562 -7.86133 6.89453 -7.55859 6.89453 -7.03125 C 6.89453 -6.51367 7.28516 -6.23047 7.83203 -6.23047 L 10.8789 -6.23047 L 10.8789 -3.33984 C 10.8789 -2.79297 11.1719 -2.41211 11.6895 -2.41211 Z"/>
  </g>
  <g id="" transform="matrix(1 0 0 1 304.924 1933)">
   <path d="M 14.9707 5.67383 C 21.9336 5.67383 27.6953 -0.078125 27.6953 -7.04102 C 27.6953 -14.0039 21.9238 -19.7559 14.9609 -19.7559 C 8.00781 -19.7559 2.25586 -14.0039 2.25586 -7.04102 C 2.25586 -0.078125 8.01758 5.67383 14.9707 5.67383 Z M 14.9707 3.85742 C 8.93555 3.85742 4.08203 -1.00586 4.08203 -7.04102 C 4.08203 -13.0762 8.92578 -17.9395 14.9609 -17.9395 C 21.0059 -17.9395 25.8594 -13.0762 25.8691 -7.04102 C 25.8789 -1.00586 21.0156 3.85742 14.9707 3.85742 Z M 14.9512 -1.06445 C 15.5176 -1.06445 15.8691 -1.45508 15.8691 -2.06055 L 15.8691 -6.13281 L 20.1074 -6.13281 C 20.6934 -6.13281 21.1133 -6.46484 21.1133 -7.02148 C 21.1133 -7.59766 20.7227 -7.93945 20.1074 -7.93945 L 15.8691 -7.93945 L 15.8691 -12.1875 C 15.8691 -12.8027 15.5176 -13.1934 14.9512 -13.1934 C 14.3848 -13.1934 14.0625 -12.7832 14.0625 -12.1875 L 14.0625 -7.93945 L 9.83398 -7.93945 C 9.21875 -7.93945 8.80859 -7.59766 8.80859 -7.02148 C 8.80859 -6.46484 9.23828 -6.13281 9.83398 -6.13281 L 14.0625 -6.13281 L 14.0625 -2.06055 C 14.0625 -1.47461 14.3848 -1.06445 14.9512 -1.06445 Z"/>
  </g>
  <text style="stroke:none;fill:black;font-family:-apple-system,&quot;SF Pro Display&quot;,&quot;SF Pro Text&quot;,Helvetica,sans-serif;font-weight:bold;" transform="matrix(1 0 0 1 263 1953)">Design Variations</text>
  <text style="stroke:none;fill:black;font-family:-apple-system,&quot;SF Pro Display&quot;,&quot;SF Pro Text&quot;,Helvetica,sans-serif;" transform="matrix(1 0 0 1 263 1971)">Symbols are supported in up to nine weights and three scales.</text>
  <text style="stroke:none;fill:black;font-family:-apple-system,&quot;SF Pro Display&quot;,&quot;SF Pro Text&quot;,Helvetica,sans-serif;" transform="matrix(1 0 0 1 263 1989)">For optimal layout with text and other symbols, vertically align</text>
  <text style="stroke:none;fill:black;font-family:-apple-system,&quot;SF Pro Display&quot;,&quot;SF Pro Text&quot;,Helvetica,sans-serif;" transform="matrix(1 0 0 1 263 2007)">symbols with the adjacent text.</text>
  <rect height="14" id="" style="fill:#00AEEF;stroke:none;opacity:0.4;" width="3" x="776" y="1919"/>
  <g id="" transform="matrix(1 0 0 1 779 1933)">
   <path d="M 10.5273 0 L 12.373 0 L 7.17773 -14.0918 L 5.43945 -14.0918 L 0.244141 0 L 2.08984 0 L 3.50586 -4.0332 L 9.11133 -4.0332 Z M 6.2793 -11.9531 L 6.33789 -11.9531 L 8.59375 -5.52734 L 4.02344 -5.52734 Z"/>
  </g>
  <rect height="14" id="" style="fill:#00AEEF;stroke:none;opacity:0.4;" width="3" x="791.617" y="1919"/>
  <text style="stroke:none;fill:black;font-family:-apple-system,&quot;SF Pro Display&quot;,&quot;SF Pro Text&quot;,Helvetica,sans-serif;font-weight:bold;" transform="matrix(1 0 0 1 776 1953)">Margins</text>
  <text style="stroke:none;fill:black;font-family:-apple-system,&quot;SF Pro Display&quot;,&quot;SF Pro Text&quot;,Helvetica,sans-serif;" transform="matrix(1 0 0 1 776 1971)">Leading and trailing margins on the left and right side of each symbol</text>
  <text style="stroke:none;fill:black;font-family:-apple-system,&quot;SF Pro Display&quot;,&quot;SF Pro Text&quot;,Helvetica,sans-serif;" transform="matrix(1 0 0 1 776 1989)">can be adjusted by modifying the width of the blue rectangles.</text>
  <text style="stroke:none;fill:black;font-family:-apple-system,&quot;SF Pro Display&quot;,&quot;SF Pro Text&quot;,Helvetica,sans-serif;" transform="matrix(1 0 0 1 776 2007)">Modifications are automatically applied proportionally to all</text>
  <text style="stroke:none;fill:black;font-family:-apple-system,&quot;SF Pro Display&quot;,&quot;SF Pro Text&quot;,Helvetica,sans-serif;" transform="matrix(1 0 0 1 776 2025)">scales and weights.</text>
  <g id="" transform="matrix(1 0 0 1 1289 1933)">
   <path d="M 2.83203 3.11523 L 4.375 4.6582 C 5.22461 5.48828 6.19141 5.41992 7.06055 4.46289 L 17.2754 -6.66016 C 17.7051 -6.36719 18.0957 -6.37695 18.5645 -6.47461 L 19.6094 -6.68945 L 20.3027 -5.99609 L 20.2539 -5.47852 C 20.1855 -4.95117 20.3516 -4.53125 20.8496 -4.0332 L 21.6602 -3.22266 C 22.168 -2.71484 22.8223 -2.68555 23.3008 -3.16406 L 26.5527 -6.41602 C 27.0312 -6.89453 27.0117 -7.54883 26.5039 -8.05664 L 25.6836 -8.87695 C 25.1855 -9.375 24.7754 -9.55078 24.2383 -9.47266 L 23.7109 -9.41406 L 23.0566 -10.0781 L 23.3398 -11.2207 C 23.4863 -11.7871 23.3398 -12.2559 22.7148 -12.8613 L 20.3027 -15.2539 C 16.7578 -18.7793 12.2266 -18.6719 9.11133 -15.5371 C 8.69141 -15.1074 8.64258 -14.5215 8.91602 -14.0918 C 9.15039 -13.7207 9.62891 -13.4961 10.2734 -13.6621 C 11.7871 -14.043 13.3008 -13.9258 14.7852 -12.9199 L 14.1602 -11.3379 C 13.9258 -10.752 13.9453 -10.2734 14.1797 -9.83398 L 3.01758 0.439453 C 2.08008 1.30859 1.97266 2.25586 2.83203 3.11523 Z M 10.6738 -15.1465 C 13.3398 -17.1387 16.6504 -16.8262 19.0527 -14.4141 L 21.6797 -11.8066 C 21.9141 -11.5723 21.9434 -11.3867 21.8848 -11.0938 L 21.5039 -9.53125 L 23.0762 -7.95898 L 24.043 -8.04688 C 24.3262 -8.07617 24.4141 -8.05664 24.6387 -7.83203 L 25.2637 -7.20703 L 22.5098 -4.46289 L 21.8848 -5.07812 C 21.6602 -5.30273 21.6406 -5.40039 21.6699 -5.68359 L 21.7578 -6.64062 L 20.1953 -8.20312 L 18.5742 -7.89062 C 18.291 -7.83203 18.1445 -7.83203 17.9102 -8.07617 L 15.7324 -10.2539 C 15.5078 -10.4883 15.4785 -10.625 15.6055 -10.9473 L 16.5527 -13.2227 C 14.9512 -14.7559 12.8418 -15.6055 10.8008 -14.9512 C 10.7129 -14.9219 10.6445 -14.9414 10.6152 -14.9805 C 10.5859 -15.0293 10.5859 -15.0781 10.6738 -15.1465 Z M 4.10156 2.41211 C 3.61328 1.91406 3.78906 1.61133 4.12109 1.30859 L 15.0781 -8.80859 L 16.3086 -7.57812 L 6.15234 3.34961 C 5.84961 3.68164 5.46875 3.7793 5.06836 3.37891 Z"/>
  </g>
  <text style="stroke:none;fill:black;font-family:-apple-system,&quot;SF Pro Display&quot;,&quot;SF Pro Text&quot;,Helvetica,sans-serif;font-weight:bold;" transform="matrix(1 0 0 1 1289 1953)">Exporting</text>
  <text style="stroke:none;fill:black;font-family:-apple-system,&quot;SF Pro Display&quot;,&quot;SF Pro Text&quot;,Helvetica,sans-serif;" transform="matrix(1 0 0 1 1289 1971)">Symbols should be outlined when exporting to ensure the</text>
  <text style="stroke:none;fill:black;font-family:-apple-system,&quot;SF Pro Display&quot;,&quot;SF Pro Text&quot;,Helvetica,sans-serif;" transform="matrix(1 0 0 1 1289 1989)">design is preserved when submitting to Xcode.</text>
  <text id="template-version" style="stroke:none;fill:black;font-family:-apple-system,&quot;SF Pro Display&quot;,&quot;SF Pro Text&quot;,Helvetica,sans-serif;text-anchor:end;" transform="matrix(1 0 0 1 3036 1933)">Template v.1.0</text>
  <text style="stroke:none;fill:black;font-family:-apple-system,&quot;SF Pro Display&quot;,&quot;SF Pro Text&quot;,Helvetica,sans-serif;text-anchor:end;" transform="matrix(1 0 0 1 3036 1951)">Generated from map.fill</text>
  <text style="stroke:none;fill:black;font-family:-apple-system,&quot;SF Pro Display&quot;,&quot;SF Pro Text&quot;,Helvetica,sans-serif;text-anchor:end;" transform="matrix(1 0 0 1 3036 1969)">Typeset at 100 points</text>
  <text style="stroke:none;fill:black;font-family:-apple-system,&quot;SF Pro Display&quot;,&quot;SF Pro Text&quot;,Helvetica,sans-serif;" transform="matrix(1 0 0 1 263 726)">Small</text>
  <text style="stroke:none;fill:black;font-family:-apple-system,&quot;SF Pro Display&quot;,&quot;SF Pro Text&quot;,Helvetica,sans-serif;" transform="matrix(1 0 0 1 263 1156)">Medium</text>
  <text style="stroke:none;fill:black;font-family:-apple-system,&quot;SF Pro Display&quot;,&quot;SF Pro Text&quot;,Helvetica,sans-serif;" transform="matrix(1 0 0 1 263 1586)">Large</text>
 </g>
 <g id="Guides">
  <g id="H-reference" style="fill:#27AAE1;stroke:none;" transform="matrix(1 0 0 1 339 696)">
   <path d="M 54.9316 0 L 57.666 0 L 30.5664 -70.459 L 28.0762 -70.459 L 0.976562 0 L 3.66211 0 L 12.9395 -24.4629 L 45.7031 -24.4629 Z M 29.1992 -67.0898 L 29.4434 -67.0898 L 44.8242 -26.709 L 13.8184 -26.709 Z"/>
  </g>
  <line id="Baseline-S" style="fill:none;stroke:#27AAE1;opacity:1;stroke-width:0.577;" x1="263" x2="3036" y1="696" y2="696"/>
  <line id="Capline-S" style="fill:none;stroke:#27AAE1;opacity:1;stroke-width:0.577;" x1="263" x2="3036" y1="625.541" y2="625.541"/>
  <g id="H-reference" style="fill:#27AAE1;stroke:none;" transform="matrix(1 0 0 1 339 1126)">
   <path d="M 54.9316 0 L 57.666 0 L 30.5664 -70.459 L 28.0762 -70.459 L 0.976562 0 L 3.66211 0 L 12.9395 -24.4629 L 45.7031 -24.4629 Z M 29.1992 -67.0898 L 29.4434 -67.0898 L 44.8242 -26.709 L 13.8184 -26.709 Z"/>
  </g>
  <line id="Baseline-M" style="fill:none;stroke:#27AAE1;opacity:1;stroke-width:0.577;" x1="263" x2="3036" y1="1126" y2="1126"/>
  <line id="Capline-M" style="fill:none;stroke:#27AAE1;opacity:1;stroke-width:0.577;" x1="263" x2="3036" y1="1055.54" y2="1055.54"/>
  <g id="H-reference" style="fill:#27AAE1;stroke:none;" transform="matrix(1 0 0 1 339 1556)">
   <path d="M 54.9316 0 L 57.666 0 L 30.5664 -70.459 L 28.0762 -70.459 L 0.976562 0 L 3.66211 0 L 12.9395 -24.4629 L 45.7031 -24.4629 Z M 29.1992 -67.0898 L 29.4434 -67.0898 L 44.8242 -26.709 L 13.8184 -26.709 Z"/>
  </g>
  <line id="Baseline-L" style="fill:none;stroke:#27AAE1;opacity:1;stroke-width:0.577;" x1="263" x2="3036" y1="1556" y2="1556"/>
  <line id="Capline-L" style="fill:none;stroke:#27AAE1;opacity:1;stroke-width:0.577;" x1="263" x2="3036" y1="1485.54" y2="1485.54"/>
  <rect height="119.336" id="left-margin" style="fill:#00AEEF;stroke:none;opacity:0.4;" width="12.4512" x="1386.61" y="1030.79"/>
  <rect height="119.336" id="right-margin" style="fill:#00AEEF;stroke:none;opacity:0.4;" width="12.4512" x="1500.63" y="1030.79"/>
 </g>
 <g id="Symbols">
  <g id="Black-L" transform="matrix(1 0 0 1 2844.97 1556)">
   <path d="M 108.057 33.3984 L 108.057 -83.8867 L 78.2715 -101.074 C 75.0977 -102.881 71.7773 -104.736 68.5059 -105.127 L 68.5059 12.6465 L 98.4375 29.3945 C 101.123 30.957 104.834 32.9102 108.057 33.3984 Z M 119.434 31.1035 C 120.508 30.7129 121.436 30.127 122.51 29.4922 L 151.855 13.1348 C 158.301 9.52148 160.791 5.12695 160.791 -1.5625 L 160.791 -91.748 C 160.791 -99.2188 155.615 -104.248 147.803 -104.248 C 144.238 -104.248 141.162 -103.125 137.451 -100.537 L 119.434 -88.8184 Z M 29.0527 32.666 C 32.666 32.666 35.6934 31.4453 39.4531 28.9551 L 57.1289 17.6758 L 57.1289 -102.441 C 55.8594 -101.953 54.7852 -101.221 53.5645 -100.537 L 25.0488 -84.7168 C 18.5547 -81.1523 16.0645 -76.709 16.0645 -70.0195 L 16.0645 20.1172 C 16.0645 27.5879 21.2402 32.666 29.0527 32.666 Z"/>
  </g>
  <g id="Heavy-L" transform="matrix(1 0 0 1 2550.19 1556)">
   <path d="M 105.42 31.8359 L 105.42 -82.2754 L 75.4395 -99.8535 C 72.7051 -101.416 69.873 -102.93 67.1387 -103.32 L 67.1387 11.377 L 97.4121 28.4668 C 99.707 29.7363 102.783 31.3477 105.42 31.8359 Z M 116.016 30.0293 C 116.992 29.6875 117.871 29.1504 118.848 28.5645 L 148.877 11.6211 C 154.639 8.44727 156.934 4.49219 156.934 -1.5625 L 156.934 -90.918 C 156.934 -97.6562 152.393 -102.1 145.459 -102.1 C 142.383 -102.1 139.697 -101.074 136.426 -98.877 L 116.016 -86.2305 Z M 27.5391 30.7617 C 30.6152 30.7617 33.3008 29.7363 36.5723 27.5879 L 56.5918 15.4297 L 56.5918 -101.074 C 55.3223 -100.537 54.1992 -99.8535 52.9785 -99.1699 L 24.1211 -82.959 C 18.3594 -79.7852 16.0645 -75.7812 16.0645 -69.7266 L 16.0645 19.6289 C 16.0645 26.3672 20.6055 30.7617 27.5391 30.7617 Z"/>
  </g>
  <g id="Bold-L" transform="matrix(1 0 0 1 2255.63 1556)">
   <path d="M 102.539 30.0293 L 102.539 -80.5176 L 72.2168 -98.5352 C 70.0684 -99.7559 67.7734 -100.928 65.5273 -101.27 L 65.5273 9.96094 L 96.2891 27.3926 C 98.1445 28.418 100.488 29.6387 102.539 30.0293 Z M 112.158 28.8086 C 113.037 28.5156 113.818 28.0762 114.746 27.5391 L 145.605 10.0098 C 150.537 7.22656 152.637 3.75977 152.637 -1.5625 L 152.637 -90.0391 C 152.637 -95.9473 148.779 -99.6094 142.871 -99.6094 C 140.332 -99.6094 138.086 -98.8281 135.303 -97.0215 L 112.158 -83.3496 Z M 25.8301 28.6621 C 28.3691 28.6621 30.6152 27.832 33.3984 26.0742 L 55.957 12.9395 L 55.957 -99.5117 C 54.7363 -98.9746 53.5645 -98.3398 52.3438 -97.6074 L 23.0957 -81.0059 C 18.1641 -78.2227 16.0645 -74.707 16.0645 -69.4336 L 16.0645 19.043 C 16.0645 24.9512 19.873 28.6621 25.8301 28.6621 Z"/>
  </g>
  <g id="Semibold-L" transform="matrix(1 0 0 1 1960.41 1556)">
   <path d="M 100.537 28.8086 L 100.537 -79.248 L 70.0195 -97.6074 C 68.2617 -98.6328 66.3574 -99.5605 64.4531 -99.8535 L 64.4531 8.98438 L 95.5078 26.6602 C 97.0703 27.4902 98.877 28.418 100.537 28.8086 Z M 24.6582 27.1973 C 26.7578 27.1973 28.7598 26.4648 31.2012 25 L 55.5176 11.2305 L 55.5176 -98.3887 C 54.2969 -97.9004 53.125 -97.2656 51.9043 -96.582 L 22.3633 -79.6387 C 17.9688 -77.1973 16.0645 -74.0234 16.0645 -69.1895 L 16.0645 18.6523 C 16.0645 23.9746 19.3848 27.1973 24.6582 27.1973 Z M 109.473 27.9785 C 110.303 27.6855 111.084 27.2949 111.865 26.8066 L 143.359 8.83789 C 147.705 6.39648 149.658 3.22266 149.658 -1.5625 L 149.658 -89.4531 C 149.658 -94.7266 146.289 -97.9492 141.064 -97.9492 C 138.916 -97.9492 136.963 -97.2656 134.521 -95.752 L 109.473 -81.3477 Z"/>
  </g>
  <g id="Medium-L" transform="matrix(1 0 0 1 1664.82 1556)">
   <path d="M 99.0234 27.832 L 99.0234 -78.3203 L 68.3594 -96.875 C 66.8457 -97.8027 65.2344 -98.4863 63.623 -98.8281 L 63.623 8.25195 L 94.9219 26.0742 C 96.2402 26.8066 97.6562 27.5391 99.0234 27.832 Z M 23.7305 26.0742 C 25.5859 26.0742 27.3438 25.4883 29.541 24.2188 L 55.2246 9.91211 L 55.2246 -97.6074 C 54.0039 -97.1191 52.7832 -96.4844 51.6113 -95.752 L 21.8262 -78.6133 C 17.8711 -76.3672 16.0645 -73.4375 16.0645 -69.043 L 16.0645 18.3594 C 16.0645 23.2422 19.043 26.0742 23.7305 26.0742 Z M 107.471 27.3438 C 108.203 27.0996 108.984 26.7578 109.717 26.2695 L 141.65 8.00781 C 145.605 5.76172 147.412 2.83203 147.412 -1.5625 L 147.412 -88.9648 C 147.412 -93.8477 144.434 -96.6309 139.697 -96.6309 C 137.842 -96.6309 136.084 -96.0938 133.936 -94.7754 L 107.471 -79.834 Z"/>
  </g>
  <g id="Regular-L" transform="matrix(1 0 0 1 1369.6 1556)">
   <path d="M 97.0215 26.6113 L 97.0215 -77.0996 L 66.1621 -95.9473 C 65.0391 -96.6797 63.8184 -97.168 62.5488 -97.4121 L 62.5488 7.27539 L 94.1406 25.3906 C 95.1172 25.9277 96.0938 26.3672 97.0215 26.6113 Z M 22.6074 24.6582 C 24.0234 24.6582 25.5371 24.1699 27.3926 23.1445 L 54.7852 8.20312 L 54.7852 -96.5332 C 53.6133 -96.0449 52.3438 -95.4102 51.1719 -94.7266 L 21.1426 -77.2461 C 17.7246 -75.3418 16.0645 -72.7539 16.0645 -68.7988 L 16.0645 17.9688 C 16.0645 22.2656 18.5547 24.6582 22.6074 24.6582 Z M 104.834 26.5137 C 105.518 26.3184 106.25 26.0254 106.934 25.5859 L 139.404 6.88477 C 142.773 4.93164 144.434 2.34375 144.434 -1.61133 L 144.434 -88.3789 C 144.434 -92.627 141.943 -94.9707 137.939 -94.9707 C 136.475 -94.9707 134.961 -94.5312 133.154 -93.5547 L 104.834 -77.8809 Z"/>
  </g>
  <g id="Light-L" transform="matrix(1 0 0 1 1074.69 1556)">
   <path d="M 95.3613 25.3906 L 95.3613 -76.0742 L 64.8438 -94.6289 C 63.6719 -95.4102 62.4023 -95.8496 61.1328 -96.1426 L 61.1328 5.61523 L 92.4805 24.0723 C 93.457 24.6582 94.4336 25.0977 95.3613 25.3906 Z M 21.6797 23.1934 C 22.9492 23.1934 24.2676 22.8027 25.8301 21.9238 L 54.4922 6.10352 L 54.4922 -95.6055 C 53.2227 -95.2148 52.002 -94.6289 50.7812 -93.8477 L 20.5078 -75.9277 C 17.5293 -74.2676 16.0645 -72.2168 16.0645 -68.6523 L 16.0645 17.3828 C 16.0645 21.1426 18.3105 23.1934 21.6797 23.1934 Z M 102.051 25.293 C 102.783 25.0488 103.613 24.707 104.443 24.2188 L 136.377 5.46875 C 139.355 3.80859 140.82 1.75781 140.82 -1.80664 L 140.82 -87.7441 C 140.82 -91.5039 138.574 -93.5059 135.205 -93.5059 C 133.936 -93.5059 132.617 -93.1641 131.055 -92.334 L 102.051 -76.3672 Z"/>
  </g>
  <g id="Thin-L" transform="matrix(1 0 0 1 780.372 1556)">
   <path d="M 93.1152 23.7305 L 93.1152 -74.707 L 63.0859 -92.9199 C 61.8164 -93.7012 60.5469 -94.1895 59.2773 -94.4824 L 59.2773 3.41797 L 90.2344 22.3633 C 91.2598 22.998 92.2363 23.4863 93.1152 23.7305 Z M 20.459 21.2891 C 21.5332 21.2891 22.6074 20.9473 23.7793 20.3125 L 54.0527 3.27148 L 54.0527 -94.3848 C 52.7832 -94.0918 51.5137 -93.5547 50.2441 -92.7246 L 19.6777 -74.1699 C 17.334 -72.8027 16.0645 -71.4844 16.0645 -68.457 L 16.0645 16.5527 C 16.0645 19.6289 18.0176 21.2891 20.459 21.2891 Z M 98.3398 23.6816 C 99.2188 23.3887 100.146 22.998 101.123 22.4121 L 132.422 3.66211 C 134.766 2.29492 136.035 0.976562 136.035 -2.05078 L 136.035 -86.9629 C 136.035 -90.0391 134.082 -91.6016 131.592 -91.6016 C 130.566 -91.6016 129.492 -91.3086 128.32 -90.7227 L 98.3398 -74.3164 Z"/>
  </g>
  <g id="Ultralight-L" transform="matrix(1 0 0 1 484.882 1556)">
   <path d="M 19.873 20.3125 C 20.752 20.3125 21.7773 20.0195 22.7051 19.4824 L 53.8574 1.85547 L 53.8574 -93.75 C 52.5391 -93.5547 51.2695 -92.9688 49.9512 -92.1875 L 19.2383 -73.291 C 17.2363 -72.0703 16.0645 -71.1426 16.0645 -68.3594 L 16.0645 16.1621 C 16.0645 18.8965 17.8223 20.3125 19.873 20.3125 Z M 91.9922 22.8516 L 91.9922 -74.0234 L 62.207 -92.041 C 60.8887 -92.8223 59.6191 -93.3105 58.3008 -93.6523 L 58.3008 2.29492 L 89.1113 21.4844 C 90.1367 22.1191 91.1133 22.6074 91.9922 22.8516 Z M 96.4355 22.9004 C 97.3633 22.5586 98.3398 22.1191 99.4629 21.4844 L 130.42 2.73438 C 132.422 1.51367 133.594 0.585938 133.594 -2.19727 L 133.594 -86.5234 C 133.594 -89.2578 131.787 -90.625 129.785 -90.625 C 128.857 -90.625 127.881 -90.3809 126.953 -89.8926 L 96.4355 -73.291 Z"/>
  </g>
  <g id="Black-M" transform="matrix(1 0 0 1 2863.23 1126)">
   <path d="M 86.3281 19.4336 L 86.3281 -74.5117 L 63.8184 -87.207 C 60.6445 -88.9648 57.4219 -90.8203 54.248 -91.2109 L 54.248 2.68555 L 76.7578 15.4785 C 79.3945 16.9922 83.1543 18.9941 86.3281 19.4336 Z M 95.7031 16.9922 C 96.7285 16.6016 97.5586 16.0156 98.584 15.4297 L 120.02 3.4668 C 125.781 0.292969 127.881 -3.36914 127.881 -9.22852 L 127.881 -79.7363 C 127.881 -86.2793 123.145 -90.918 116.211 -90.918 C 112.891 -90.918 110.107 -89.8438 106.787 -87.4512 L 95.7031 -79.3945 Z M 24.1211 19.1895 C 27.4414 19.1895 30.2246 18.0176 33.5938 15.6738 L 44.8242 7.66602 L 44.8242 -88.7207 C 43.8477 -88.3301 43.0176 -87.793 42.041 -87.207 L 20.3125 -75.2441 C 14.5996 -72.0703 12.4512 -68.3594 12.4512 -62.5 L 12.4512 8.00781 C 12.4512 14.5508 17.1875 19.1895 24.1211 19.1895 Z"/>
  </g>
  <g id="Heavy-M" transform="matrix(1 0 0 1 2568.16 1126)">
   <path d="M 83.9355 18.0176 L 83.9355 -73.0469 L 61.0352 -86.2305 C 58.3984 -87.6953 55.7129 -89.209 53.0762 -89.502 L 53.0762 1.75781 L 76.0742 14.7461 C 78.2715 16.0156 81.3477 17.627 83.9355 18.0176 Z M 92.6758 16.1133 C 93.5547 15.7715 94.3359 15.2832 95.2148 14.7949 L 117.578 2.24609 C 122.656 -0.585938 124.609 -3.95508 124.609 -9.17969 L 124.609 -79.0527 C 124.609 -84.9121 120.508 -88.916 114.404 -88.916 C 111.523 -88.916 109.131 -87.9883 106.201 -85.9375 L 92.6758 -77.002 Z M 22.6562 17.4805 C 25.5371 17.4805 27.9297 16.5039 30.8594 14.502 L 44.3359 5.76172 L 44.3359 -87.4512 C 43.3594 -87.0605 42.5293 -86.5234 41.5527 -85.9375 L 19.4824 -73.6328 C 14.4043 -70.8496 12.4512 -67.4805 12.4512 -62.2559 L 12.4512 7.61719 C 12.4512 13.4766 16.5527 17.4805 22.6562 17.4805 Z"/>
  </g>
  <g id="Bold-M" transform="matrix(1 0 0 1 2273.28 1126)">
   <path d="M 81.25 16.4551 L 81.25 -71.3867 L 57.9102 -85.1074 C 55.9082 -86.2793 53.8086 -87.3535 51.7578 -87.6465 L 51.7578 0.683594 L 75.3418 13.9648 C 77.0508 14.9414 79.2969 16.1133 81.25 16.4551 Z M 89.2578 15.1367 C 90.0391 14.8926 90.6738 14.502 91.4551 14.0625 L 114.893 0.830078 C 119.189 -1.5625 120.947 -4.58984 120.947 -9.13086 L 120.947 -78.2715 C 120.947 -83.3496 117.529 -86.6211 112.354 -86.6211 C 110.059 -86.6211 108.008 -85.8887 105.566 -84.2773 L 89.2578 -74.2676 Z M 21.0449 15.5762 C 23.3398 15.5762 25.3906 14.7949 27.832 13.1836 L 43.75 3.66211 L 43.75 -85.9863 C 42.7734 -85.5957 41.8945 -85.0586 40.9668 -84.5215 L 18.5059 -71.875 C 14.209 -69.4824 12.4512 -66.5039 12.4512 -61.9141 L 12.4512 7.17773 C 12.4512 12.2559 15.8691 15.5762 21.0449 15.5762 Z"/>
  </g>
  <g id="Semibold-M" transform="matrix(1 0 0 1 1977.84 1126)">
   <path d="M 79.3945 15.332 L 79.3945 -70.2637 L 55.8105 -84.375 C 54.1992 -85.3027 52.5391 -86.1328 50.8789 -86.377 L 50.8789 -0.0488281 L 74.8047 13.4277 C 76.1719 14.1602 77.8809 15.0391 79.3945 15.332 Z M 86.9141 14.502 C 87.5977 14.2578 88.1836 13.916 88.8184 13.5254 L 112.988 -0.146484 C 116.797 -2.24609 118.408 -5.0293 118.408 -9.08203 L 118.408 -77.7344 C 118.408 -82.2754 115.527 -85.1074 110.938 -85.1074 C 108.984 -85.1074 107.275 -84.4727 105.127 -83.1055 L 86.9141 -72.4121 Z M 19.9707 14.2578 C 21.875 14.2578 23.584 13.623 25.7324 12.3047 L 43.3594 2.19727 L 43.3594 -85.0098 C 42.3828 -84.5703 41.5039 -84.082 40.5762 -83.5449 L 17.8711 -70.7031 C 14.0625 -68.5547 12.4512 -65.8203 12.4512 -61.7188 L 12.4512 6.88477 C 12.4512 11.4258 15.3809 14.2578 19.9707 14.2578 Z"/>
  </g>
  <g id="Medium-M" transform="matrix(1 0 0 1 1682.08 1126)">
   <path d="M 77.9785 14.502 L 77.9785 -69.3848 L 54.1504 -83.7891 C 52.8809 -84.5215 51.5625 -85.1562 50.1953 -85.4004 L 50.1953 -0.585938 L 74.4141 12.9883 C 75.5371 13.623 76.8066 14.2578 77.9785 14.502 Z M 19.1406 13.2812 C 20.752 13.2812 22.2656 12.7441 24.1699 11.6211 L 43.0176 1.07422 L 43.0176 -84.2285 C 42.1387 -83.8379 41.2109 -83.3008 40.2832 -82.8125 L 17.3828 -69.7754 C 13.9648 -67.8711 12.4512 -65.2832 12.4512 -61.5234 L 12.4512 6.64062 C 12.4512 10.791 14.9902 13.2812 19.1406 13.2812 Z M 85.1562 13.9648 C 85.7422 13.8184 86.2793 13.5254 86.8652 13.1836 L 111.572 -0.878906 C 114.99 -2.7832 116.504 -5.32227 116.504 -9.08203 L 116.504 -77.2949 C 116.504 -81.4453 113.965 -83.8867 109.863 -83.8867 C 108.203 -83.8867 106.689 -83.3984 104.785 -82.2266 L 85.1562 -70.9961 Z"/>
  </g>
  <g id="Regular-M" transform="matrix(1 0 0 1 1386.61 1126)">
   <path d="M 76.1719 13.4277 L 76.1719 -68.2617 L 52.0508 -83.0566 C 51.2207 -83.5449 50.2441 -83.9355 49.3164 -84.1309 L 49.3164 -1.31836 L 73.9258 12.4512 C 74.6582 12.8906 75.4395 13.1836 76.1719 13.4277 Z M 18.0176 11.9629 C 19.2383 11.9629 20.5078 11.5723 22.1191 10.6934 L 42.627 -0.341797 L 42.627 -83.252 C 41.748 -82.8125 40.7715 -82.3242 39.8926 -81.8359 L 16.748 -68.5547 C 13.8184 -66.9434 12.4512 -64.5996 12.4512 -61.3281 L 12.4512 6.34766 C 12.4512 9.96094 14.502 11.9629 18.0176 11.9629 Z M 82.8125 13.3301 C 83.3008 13.1836 83.8379 12.9883 84.2773 12.6465 L 109.717 -1.80664 C 112.646 -3.41797 114.014 -5.76172 114.014 -9.0332 L 114.014 -76.7578 C 114.014 -80.3711 111.963 -82.373 108.447 -82.373 C 107.178 -82.373 105.957 -81.9824 104.346 -81.1035 L 82.8125 -69.1406 Z"/>
  </g>
  <g id="Light-M" transform="matrix(1 0 0 1 1091.54 1126)">
   <path d="M 74.6582 12.3047 L 74.6582 -67.334 L 50.8789 -81.8848 C 49.9512 -82.4219 48.9746 -82.8125 48.0469 -83.0078 L 48.0469 -2.83203 L 72.4121 11.3281 C 73.1934 11.7188 73.9258 12.0605 74.6582 12.3047 Z M 17.1875 10.6934 C 18.2617 10.6934 19.3848 10.3516 20.7031 9.61914 L 42.334 -2.24609 L 42.334 -82.4219 C 41.4062 -82.0801 40.4785 -81.5918 39.502 -81.0547 L 16.1621 -67.3828 C 13.6719 -65.9668 12.4512 -64.1113 12.4512 -61.1816 L 12.4512 5.81055 C 12.4512 8.98438 14.3066 10.6934 17.1875 10.6934 Z M 80.3223 12.2559 C 80.9082 12.0605 81.4941 11.8164 82.0312 11.4258 L 107.031 -3.07617 C 109.521 -4.49219 110.742 -6.29883 110.742 -9.22852 L 110.742 -76.2207 C 110.742 -79.3457 108.887 -81.0547 106.006 -81.0547 C 104.932 -81.0547 103.809 -80.7617 102.49 -80.0293 L 80.3223 -67.7734 Z"/>
  </g>
  <g id="Thin-M" transform="matrix(1 0 0 1 796.974 1126)">
   <path d="M 72.6562 10.791 L 72.6562 -66.1133 L 49.2676 -80.3223 C 48.291 -80.9082 47.3145 -81.2988 46.3379 -81.543 L 46.3379 -4.78516 L 70.4102 9.76562 C 71.2402 10.2539 71.9727 10.5957 72.6562 10.791 Z M 16.1133 8.98438 C 16.9922 8.98438 17.8711 8.69141 18.8477 8.1543 L 41.9922 -4.78516 L 41.9922 -81.3477 C 41.0156 -81.1035 40.0391 -80.6641 39.0625 -80.0293 L 15.4297 -65.7715 C 13.4766 -64.6484 12.4512 -63.4766 12.4512 -61.0352 L 12.4512 5.07812 C 12.4512 7.61719 14.0137 8.98438 16.1133 8.98438 Z M 77.002 10.791 C 77.6855 10.5469 78.3691 10.2539 79.1016 9.81445 L 103.516 -4.6875 C 105.42 -5.81055 106.445 -7.03125 106.445 -9.47266 L 106.445 -75.4883 C 106.445 -78.0273 104.883 -79.3457 102.783 -79.3457 C 101.904 -79.3457 101.025 -79.1016 100.049 -78.5645 L 77.002 -65.9668 Z"/>
  </g>
  <g id="Ultralight-M" transform="matrix(1 0 0 1 501.362 1126)">
   <path d="M 15.5762 8.10547 C 16.3086 8.10547 17.1387 7.86133 17.9199 7.42188 L 41.7969 -6.05469 L 41.7969 -80.7617 C 40.7715 -80.6152 39.7949 -80.1758 38.8184 -79.541 L 15.0391 -64.9902 C 13.3789 -64.0137 12.4512 -63.1348 12.4512 -60.9375 L 12.4512 4.73633 C 12.4512 6.93359 13.8672 8.10547 15.5762 8.10547 Z M 71.6309 10.0586 L 71.6309 -65.4785 L 48.4863 -79.4922 C 47.4609 -80.127 46.4844 -80.5176 45.459 -80.7617 L 45.459 -5.81055 L 69.3848 8.98438 C 70.2148 9.47266 70.9473 9.86328 71.6309 10.0586 Z M 75.3418 10.0586 C 76.0254 9.81445 76.7578 9.47266 77.5879 8.98438 L 101.66 -5.51758 C 103.32 -6.54297 104.248 -7.37305 104.248 -9.57031 L 104.248 -75.0977 C 104.248 -77.3438 102.832 -78.418 101.123 -78.418 C 100.391 -78.418 99.6094 -78.2715 98.7793 -77.832 L 75.3418 -65.0391 Z"/>
  </g>
  <g id="Black-S" transform="matrix(1 0 0 1 2878.52 696)">
   <path d="M 67.4805 7.51953 L 67.4805 -65.918 L 49.8047 -75.8789 C 47.3633 -77.2461 44.873 -78.6621 42.4316 -78.9551 L 42.4316 -5.56641 L 60.1074 4.44336 C 62.1582 5.61523 65.0391 7.17773 67.4805 7.51953 Z M 74.8047 5.61523 C 75.5859 5.32227 76.2207 4.88281 77.002 4.44336 L 93.8965 -4.98047 C 98.3398 -7.4707 100 -10.3027 100 -14.8438 L 100 -70.0684 C 100 -75.1465 96.3379 -78.7109 90.9668 -78.7109 C 88.3789 -78.7109 86.2305 -77.8809 83.6426 -76.0254 L 74.8047 -69.6777 Z M 18.7988 7.27539 C 21.3867 7.27539 23.5352 6.39648 26.123 4.58984 L 35.1074 -1.75781 L 35.1074 -77.0508 C 34.3262 -76.7578 33.6914 -76.3184 32.9102 -75.8789 L 15.8691 -66.4551 C 11.4258 -64.0137 9.76562 -61.1328 9.76562 -56.5918 L 9.76562 -1.36719 C 9.76562 3.71094 13.4277 7.27539 18.7988 7.27539 Z"/>
  </g>
  <g id="Heavy-S" transform="matrix(1 0 0 1 2582.88 696)">
   <path d="M 65.8203 6.54297 L 65.8203 -64.8926 L 47.8027 -75.2441 C 45.8008 -76.416 43.7012 -77.5391 41.6992 -77.7832 L 41.6992 -6.15234 L 59.7656 4.05273 C 61.4746 4.98047 63.8184 6.25 65.8203 6.54297 Z M 72.7539 5.07812 C 73.4375 4.83398 74.0234 4.44336 74.6582 4.05273 L 92.334 -5.81055 C 96.3379 -8.00781 97.8516 -10.6934 97.8516 -14.7949 L 97.8516 -69.5801 C 97.8516 -74.1699 94.6289 -77.2949 89.8438 -77.2949 C 87.5977 -77.2949 85.6934 -76.6113 83.3984 -75 L 72.7539 -67.9688 Z M 17.7734 6.10352 C 20.0195 6.10352 21.9238 5.37109 24.2188 3.80859 L 34.7168 -2.97852 L 34.7168 -76.1719 C 33.9844 -75.8301 33.3008 -75.4395 32.5684 -75 L 15.2832 -65.3809 C 11.3281 -63.1836 9.76562 -60.498 9.76562 -56.3965 L 9.76562 -1.61133 C 9.76562 2.97852 12.9883 6.10352 17.7734 6.10352 Z"/>
  </g>
  <g id="Bold-S" transform="matrix(1 0 0 1 2287.37 696)">
   <path d="M 63.9648 5.46875 L 63.9648 -63.7695 L 45.6055 -74.5605 C 44.043 -75.4395 42.4316 -76.3184 40.8203 -76.5137 L 40.8203 -6.73828 L 59.375 3.56445 C 60.6934 4.29688 62.4512 5.22461 63.9648 5.46875 Z M 70.459 4.49219 C 71.0449 4.29688 71.5332 4.00391 72.0703 3.66211 L 90.5762 -6.68945 C 94.043 -8.64258 95.459 -11.084 95.459 -14.7461 L 95.459 -69.043 C 95.459 -73.0957 92.7734 -75.7324 88.5742 -75.7324 C 86.7188 -75.7324 85.1562 -75.1953 83.1543 -73.877 L 70.459 -66.0645 Z M 16.6504 4.83398 C 18.457 4.83398 20.0684 4.24805 22.0703 2.92969 L 34.3262 -4.39453 L 34.3262 -75.1465 C 33.5938 -74.8047 32.9102 -74.4141 32.1777 -73.9746 L 14.6484 -64.209 C 11.1816 -62.2559 9.76562 -59.8145 9.76562 -56.1523 L 9.76562 -1.85547 C 9.76562 2.19727 12.4512 4.83398 16.6504 4.83398 Z"/>
  </g>
  <g id="Semibold-S" transform="matrix(1 0 0 1 1991.48 696)">
   <path d="M 62.6465 4.73633 L 62.6465 -62.9395 L 44.043 -74.0723 C 42.8223 -74.8047 41.5527 -75.4395 40.2832 -75.6348 L 40.2832 -7.17773 L 59.1309 3.27148 C 60.1562 3.80859 61.4746 4.49219 62.6465 4.73633 Z M 68.8965 4.05273 C 69.3848 3.90625 69.8242 3.66211 70.2637 3.36914 L 89.4043 -7.32422 C 92.4805 -9.08203 93.7988 -11.377 93.7988 -14.6973 L 93.7988 -68.7012 C 93.7988 -72.3633 91.4551 -74.6582 87.6953 -74.6582 C 86.1328 -74.6582 84.7168 -74.1699 82.959 -73.0957 L 68.8965 -64.7461 Z M 15.8691 3.95508 C 17.4316 3.95508 18.7988 3.41797 20.6055 2.34375 L 34.0332 -5.32227 L 34.0332 -74.4629 C 33.3496 -74.1211 32.6172 -73.7305 31.8848 -73.291 L 14.1602 -63.3789 C 11.084 -61.6699 9.76562 -59.3262 9.76562 -56.0059 L 9.76562 -2.05078 C 9.76562 1.66016 12.1094 3.95508 15.8691 3.95508 Z"/>
  </g>
  <g id="Medium-S" transform="matrix(1 0 0 1 1695.41 696)">
   <path d="M 61.6699 4.15039 L 61.6699 -62.3535 L 42.8711 -73.7305 C 41.9434 -74.3164 40.8691 -74.8047 39.8438 -74.9512 L 39.8438 -7.51953 L 58.9355 3.02734 C 59.7656 3.4668 60.7422 3.95508 61.6699 4.15039 Z M 15.2832 3.27148 C 16.6016 3.27148 17.8711 2.83203 19.4824 1.9043 L 33.8379 -6.05469 L 33.8379 -73.9258 C 33.1055 -73.584 32.4219 -73.1934 31.6895 -72.8027 L 13.8184 -62.7441 C 10.9863 -61.1816 9.76562 -58.9355 9.76562 -55.9082 L 9.76562 -2.19727 C 9.76562 1.2207 11.8164 3.27148 15.2832 3.27148 Z M 67.6758 3.75977 C 68.1152 3.61328 68.5059 3.41797 68.8965 3.17383 L 88.4766 -7.8125 C 91.3086 -9.42383 92.5293 -11.6211 92.5293 -14.6484 L 92.5293 -68.4082 C 92.5293 -71.8262 90.4785 -73.877 87.0117 -73.877 C 85.6934 -73.877 84.4238 -73.4375 82.8613 -72.4609 L 67.6758 -63.7695 Z"/>
  </g>
  <g id="Regular-S" transform="matrix(1 0 0 1 1399.5 696)">
   <path d="M 60.4004 3.41797 L 60.4004 -61.5723 L 41.3574 -73.2422 C 40.7227 -73.6328 39.9902 -73.9258 39.2578 -74.0723 L 39.2578 -7.95898 L 58.6426 2.68555 C 59.2285 2.97852 59.8145 3.22266 60.4004 3.41797 Z M 14.502 2.39258 C 15.5762 2.39258 16.6016 2.05078 18.0176 1.31836 L 33.5449 -6.98242 L 33.5449 -73.2422 C 32.8613 -72.9004 32.1289 -72.5098 31.4453 -72.1191 L 13.3789 -61.9141 C 10.9375 -60.5469 9.76562 -58.4473 9.76562 -55.7617 L 9.76562 -2.39258 C 9.76562 0.683594 11.4746 2.39258 14.502 2.39258 Z M 66.1133 3.36914 C 66.4551 3.22266 66.8457 3.07617 67.1387 2.88086 L 87.2559 -8.44727 C 89.7461 -9.81445 90.918 -11.9141 90.918 -14.6484 L 90.918 -68.0176 C 90.918 -71.0938 89.1602 -72.8027 86.1328 -72.8027 C 85.1074 -72.8027 84.0332 -72.4609 82.666 -71.7285 L 66.1133 -62.5 Z"/>
  </g>
  <g id="Light-S" transform="matrix(1 0 0 1 1104.23 696)">
   <path d="M 59.082 2.44141 L 59.082 -60.7422 L 40.332 -72.2168 C 39.6484 -72.6562 38.8672 -72.9492 38.1348 -73.0957 L 38.1348 -9.27734 L 57.3242 1.66016 C 57.9102 2.00195 58.4961 2.24609 59.082 2.44141 Z M 13.8184 1.2207 C 14.6973 1.2207 15.625 0.976562 16.748 0.341797 L 33.3008 -8.69141 L 33.3008 -72.5098 C 32.5684 -72.2168 31.8359 -71.8262 31.1035 -71.4355 L 12.8906 -60.8887 C 10.791 -59.668 9.76562 -58.0566 9.76562 -55.6152 L 9.76562 -2.88086 C 9.76562 -0.244141 11.2793 1.2207 13.8184 1.2207 Z M 63.916 2.39258 C 64.3066 2.24609 64.7461 2.05078 65.1367 1.80664 L 84.9121 -9.52148 C 87.0117 -10.7422 88.0371 -12.3535 88.0371 -14.7949 L 88.0371 -67.5293 C 88.0371 -70.166 86.4746 -71.6309 83.9844 -71.6309 C 83.1055 -71.6309 82.1777 -71.3867 81.0059 -70.752 L 63.916 -61.2793 Z"/>
  </g>
  <g id="Thin-S" transform="matrix(1 0 0 1 809.425 696)">
   <path d="M 57.3242 1.12305 L 57.3242 -59.668 L 38.916 -70.8496 C 38.1836 -71.2891 37.4023 -71.582 36.6211 -71.7773 L 36.6211 -10.9863 L 55.5664 0.341797 C 56.2012 0.683594 56.7871 0.976562 57.3242 1.12305 Z M 12.8418 -0.244141 C 13.5742 -0.244141 14.3066 -0.488281 15.1367 -0.927734 L 32.959 -10.8887 L 32.959 -71.582 C 32.2266 -71.3379 31.4453 -70.9961 30.7129 -70.5566 L 12.2559 -59.4727 C 10.5957 -58.5449 9.76562 -57.4707 9.76562 -55.4688 L 9.76562 -3.51562 C 9.76562 -1.41602 11.0352 -0.244141 12.8418 -0.244141 Z M 60.9863 1.12305 C 61.4746 0.927734 62.0117 0.732422 62.5488 0.390625 L 81.7871 -10.9863 C 83.3984 -11.9141 84.2285 -12.9883 84.2285 -14.9902 L 84.2285 -66.8945 C 84.2285 -68.9941 82.959 -70.1172 81.1523 -70.1172 C 80.4199 -70.1172 79.6875 -69.9219 78.8574 -69.4824 L 60.9863 -59.668 Z"/>
  </g>
  <g id="Ultralight-S" transform="matrix(1 0 0 1 513.691 696)">
   <path d="M 56.3965 0.439453 L 56.3965 -59.1309 L 38.1836 -70.1172 C 37.4512 -70.6055 36.6699 -70.8984 35.8887 -71.0938 L 35.8887 -11.9141 L 54.6387 -0.390625 C 55.2734 0 55.8594 0.292969 56.3965 0.439453 Z M 12.3535 -1.02539 C 12.9883 -1.02539 13.623 -1.2207 14.3066 -1.61133 L 32.8125 -12.0605 L 32.8125 -71.0449 C 32.0312 -70.8984 31.25 -70.5566 30.4688 -70.0684 L 11.9141 -58.7402 C 10.498 -57.959 9.76562 -57.1777 9.76562 -55.3711 L 9.76562 -3.80859 C 9.76562 -2.00195 10.9375 -1.02539 12.3535 -1.02539 Z M 59.4727 0.439453 C 60.0098 0.244141 60.5957 0 61.1816 -0.390625 L 80.1758 -11.7188 C 81.543 -12.5488 82.2754 -13.3301 82.2754 -15.0879 L 82.2754 -66.6016 C 82.2754 -68.4082 81.1523 -69.3359 79.6875 -69.3359 C 79.0527 -69.3359 78.418 -69.1895 77.7344 -68.7988 L 59.4727 -58.8379 Z"/>
  </g>
 </g>
</svg>
