<?xml version="1.0" encoding="UTF-8"?>
<!--Generator: Apple Native CoreSVG 123-->
<!DOCTYPE svg
PUBLIC "-//W3C//DTD SVG 1.1//EN"
       "http://www.w3.org/Graphics/SVG/1.1/DTD/svg11.dtd">
<svg version="1.1" xmlns="http://www.w3.org/2000/svg" xmlns:xlink="http://www.w3.org/1999/xlink" width="3300" height="2200">
 <!--glyph: "uni100356.medium", point size: 100.000000, font version: "Version 15.0d7e11", template writer version: "5"-->
 <g id="Notes">
  <rect height="2200" id="artboard" style="fill:white;opacity:1" width="3300" x="0" y="0"/>
  <line id="" style="fill:none;stroke:black;opacity:1;stroke-width:0.5;" x1="263" x2="3036" y1="292" y2="292"/>
  <text style="stroke:none;fill:black;font-family:-apple-system,&quot;SF Pro Display&quot;,&quot;SF Pro Text&quot;,Helvetica,sans-serif;font-weight:bold;" transform="matrix(1 0 0 1 263 322)">Weight/Scale Variations</text>
  <text style="stroke:none;fill:black;font-family:-apple-system,&quot;SF Pro Display&quot;,&quot;SF Pro Text&quot;,Helvetica,sans-serif;text-anchor:middle;" transform="matrix(1 0 0 1 559.711 322)">Ultralight</text>
  <text style="stroke:none;fill:black;font-family:-apple-system,&quot;SF Pro Display&quot;,&quot;SF Pro Text&quot;,Helvetica,sans-serif;text-anchor:middle;" transform="matrix(1 0 0 1 856.422 322)">Thin</text>
  <text style="stroke:none;fill:black;font-family:-apple-system,&quot;SF Pro Display&quot;,&quot;SF Pro Text&quot;,Helvetica,sans-serif;text-anchor:middle;" transform="matrix(1 0 0 1 1153.13 322)">Light</text>
  <text style="stroke:none;fill:black;font-family:-apple-system,&quot;SF Pro Display&quot;,&quot;SF Pro Text&quot;,Helvetica,sans-serif;text-anchor:middle;" transform="matrix(1 0 0 1 1449.84 322)">Regular</text>
  <text style="stroke:none;fill:black;font-family:-apple-system,&quot;SF Pro Display&quot;,&quot;SF Pro Text&quot;,Helvetica,sans-serif;text-anchor:middle;" transform="matrix(1 0 0 1 1746.56 322)">Medium</text>
  <text style="stroke:none;fill:black;font-family:-apple-system,&quot;SF Pro Display&quot;,&quot;SF Pro Text&quot;,Helvetica,sans-serif;text-anchor:middle;" transform="matrix(1 0 0 1 2043.27 322)">Semibold</text>
  <text style="stroke:none;fill:black;font-family:-apple-system,&quot;SF Pro Display&quot;,&quot;SF Pro Text&quot;,Helvetica,sans-serif;text-anchor:middle;" transform="matrix(1 0 0 1 2339.98 322)">Bold</text>
  <text style="stroke:none;fill:black;font-family:-apple-system,&quot;SF Pro Display&quot;,&quot;SF Pro Text&quot;,Helvetica,sans-serif;text-anchor:middle;" transform="matrix(1 0 0 1 2636.69 322)">Heavy</text>
  <text style="stroke:none;fill:black;font-family:-apple-system,&quot;SF Pro Display&quot;,&quot;SF Pro Text&quot;,Helvetica,sans-serif;text-anchor:middle;" transform="matrix(1 0 0 1 2933.4 322)">Black</text>
  <line id="" style="fill:none;stroke:black;opacity:1;stroke-width:0.5;" x1="263" x2="3036" y1="1903" y2="1903"/>
  <g id="" transform="matrix(1 0 0 1 263 1933)">
   <path d="M 9.24805 0.830078 C 13.5547 0.830078 17.1387 -2.74414 17.1387 -7.05078 C 17.1387 -11.3574 13.5449 -14.9316 9.23828 -14.9316 C 4.94141 -14.9316 1.36719 -11.3574 1.36719 -7.05078 C 1.36719 -2.74414 4.95117 0.830078 9.24805 0.830078 Z M 9.24805 -0.654297 C 5.70312 -0.654297 2.87109 -3.49609 2.87109 -7.05078 C 2.87109 -10.6055 5.69336 -13.4473 9.23828 -13.4473 C 12.793 -13.4473 15.6348 -10.6055 15.6445 -7.05078 C 15.6543 -3.49609 12.8027 -0.654297 9.24805 -0.654297 Z M 9.22852 -3.42773 C 9.69727 -3.42773 9.9707 -3.74023 9.9707 -4.25781 L 9.9707 -6.31836 L 12.1973 -6.31836 C 12.6953 -6.31836 13.0371 -6.57227 13.0371 -7.04102 C 13.0371 -7.51953 12.7148 -7.7832 12.1973 -7.7832 L 9.9707 -7.7832 L 9.9707 -10.0098 C 9.9707 -10.5273 9.69727 -10.8496 9.22852 -10.8496 C 8.75977 -10.8496 8.50586 -10.5078 8.50586 -10.0098 L 8.50586 -7.7832 L 6.29883 -7.7832 C 5.78125 -7.7832 5.44922 -7.51953 5.44922 -7.04102 C 5.44922 -6.57227 5.80078 -6.31836 6.29883 -6.31836 L 8.50586 -6.31836 L 8.50586 -4.25781 C 8.50586 -3.75977 8.75977 -3.42773 9.22852 -3.42773 Z"/>
  </g>
  <g id="" transform="matrix(1 0 0 1 281.506 1933)">
   <path d="M 11.709 2.91016 C 17.1582 2.91016 21.6699 -1.60156 21.6699 -7.05078 C 21.6699 -12.4902 17.1484 -17.0117 11.6992 -17.0117 C 6.25977 -17.0117 1.74805 -12.4902 1.74805 -7.05078 C 1.74805 -1.60156 6.26953 2.91016 11.709 2.91016 Z M 11.709 1.25 C 7.09961 1.25 3.41797 -2.44141 3.41797 -7.05078 C 3.41797 -11.6504 7.08984 -15.3516 11.6992 -15.3516 C 16.3086 -15.3516 20 -11.6504 20.0098 -7.05078 C 20.0195 -2.44141 16.3184 1.25 11.709 1.25 Z M 11.6895 -2.41211 C 12.207 -2.41211 12.5195 -2.77344 12.5195 -3.33984 L 12.5195 -6.23047 L 15.5762 -6.23047 C 16.123 -6.23047 16.5039 -6.51367 16.5039 -7.03125 C 16.5039 -7.55859 16.1426 -7.86133 15.5762 -7.86133 L 12.5195 -7.86133 L 12.5195 -10.9277 C 12.5195 -11.5039 12.207 -11.8555 11.6895 -11.8555 C 11.1719 -11.8555 10.8789 -11.4844 10.8789 -10.9277 L 10.8789 -7.86133 L 7.83203 -7.86133 C 7.26562 -7.86133 6.89453 -7.55859 6.89453 -7.03125 C 6.89453 -6.51367 7.28516 -6.23047 7.83203 -6.23047 L 10.8789 -6.23047 L 10.8789 -3.33984 C 10.8789 -2.79297 11.1719 -2.41211 11.6895 -2.41211 Z"/>
  </g>
  <g id="" transform="matrix(1 0 0 1 304.924 1933)">
   <path d="M 14.9707 5.67383 C 21.9336 5.67383 27.6953 -0.078125 27.6953 -7.04102 C 27.6953 -14.0039 21.9238 -19.7559 14.9609 -19.7559 C 8.00781 -19.7559 2.25586 -14.0039 2.25586 -7.04102 C 2.25586 -0.078125 8.01758 5.67383 14.9707 5.67383 Z M 14.9707 3.85742 C 8.93555 3.85742 4.08203 -1.00586 4.08203 -7.04102 C 4.08203 -13.0762 8.92578 -17.9395 14.9609 -17.9395 C 21.0059 -17.9395 25.8594 -13.0762 25.8691 -7.04102 C 25.8789 -1.00586 21.0156 3.85742 14.9707 3.85742 Z M 14.9512 -1.06445 C 15.5176 -1.06445 15.8691 -1.45508 15.8691 -2.06055 L 15.8691 -6.13281 L 20.1074 -6.13281 C 20.6934 -6.13281 21.1133 -6.46484 21.1133 -7.02148 C 21.1133 -7.59766 20.7227 -7.93945 20.1074 -7.93945 L 15.8691 -7.93945 L 15.8691 -12.1875 C 15.8691 -12.8027 15.5176 -13.1934 14.9512 -13.1934 C 14.3848 -13.1934 14.0625 -12.7832 14.0625 -12.1875 L 14.0625 -7.93945 L 9.83398 -7.93945 C 9.21875 -7.93945 8.80859 -7.59766 8.80859 -7.02148 C 8.80859 -6.46484 9.23828 -6.13281 9.83398 -6.13281 L 14.0625 -6.13281 L 14.0625 -2.06055 C 14.0625 -1.47461 14.3848 -1.06445 14.9512 -1.06445 Z"/>
  </g>
  <text style="stroke:none;fill:black;font-family:-apple-system,&quot;SF Pro Display&quot;,&quot;SF Pro Text&quot;,Helvetica,sans-serif;font-weight:bold;" transform="matrix(1 0 0 1 263 1953)">Design Variations</text>
  <text style="stroke:none;fill:black;font-family:-apple-system,&quot;SF Pro Display&quot;,&quot;SF Pro Text&quot;,Helvetica,sans-serif;" transform="matrix(1 0 0 1 263 1971)">Symbols are supported in up to nine weights and three scales.</text>
  <text style="stroke:none;fill:black;font-family:-apple-system,&quot;SF Pro Display&quot;,&quot;SF Pro Text&quot;,Helvetica,sans-serif;" transform="matrix(1 0 0 1 263 1989)">For optimal layout with text and other symbols, vertically align</text>
  <text style="stroke:none;fill:black;font-family:-apple-system,&quot;SF Pro Display&quot;,&quot;SF Pro Text&quot;,Helvetica,sans-serif;" transform="matrix(1 0 0 1 263 2007)">symbols with the adjacent text.</text>
  <rect height="14" id="" style="fill:#00AEEF;stroke:none;opacity:0.4;" width="3" x="776" y="1919"/>
  <g id="" transform="matrix(1 0 0 1 779 1933)">
   <path d="M 10.5273 0 L 12.373 0 L 7.17773 -14.0918 L 5.43945 -14.0918 L 0.244141 0 L 2.08984 0 L 3.50586 -4.0332 L 9.11133 -4.0332 Z M 6.2793 -11.9531 L 6.33789 -11.9531 L 8.59375 -5.52734 L 4.02344 -5.52734 Z"/>
  </g>
  <rect height="14" id="" style="fill:#00AEEF;stroke:none;opacity:0.4;" width="3" x="791.617" y="1919"/>
  <text style="stroke:none;fill:black;font-family:-apple-system,&quot;SF Pro Display&quot;,&quot;SF Pro Text&quot;,Helvetica,sans-serif;font-weight:bold;" transform="matrix(1 0 0 1 776 1953)">Margins</text>
  <text style="stroke:none;fill:black;font-family:-apple-system,&quot;SF Pro Display&quot;,&quot;SF Pro Text&quot;,Helvetica,sans-serif;" transform="matrix(1 0 0 1 776 1971)">Leading and trailing margins on the left and right side of each symbol</text>
  <text style="stroke:none;fill:black;font-family:-apple-system,&quot;SF Pro Display&quot;,&quot;SF Pro Text&quot;,Helvetica,sans-serif;" transform="matrix(1 0 0 1 776 1989)">can be adjusted by modifying the width of the blue rectangles.</text>
  <text style="stroke:none;fill:black;font-family:-apple-system,&quot;SF Pro Display&quot;,&quot;SF Pro Text&quot;,Helvetica,sans-serif;" transform="matrix(1 0 0 1 776 2007)">Modifications are automatically applied proportionally to all</text>
  <text style="stroke:none;fill:black;font-family:-apple-system,&quot;SF Pro Display&quot;,&quot;SF Pro Text&quot;,Helvetica,sans-serif;" transform="matrix(1 0 0 1 776 2025)">scales and weights.</text>
  <g id="" transform="matrix(1 0 0 1 1289 1933)">
   <path d="M 2.83203 3.11523 L 4.375 4.6582 C 5.22461 5.48828 6.19141 5.41992 7.06055 4.46289 L 17.2754 -6.66016 C 17.7051 -6.36719 18.0957 -6.37695 18.5645 -6.47461 L 19.6094 -6.68945 L 20.3027 -5.99609 L 20.2539 -5.47852 C 20.1855 -4.95117 20.3516 -4.53125 20.8496 -4.0332 L 21.6602 -3.22266 C 22.168 -2.71484 22.8223 -2.68555 23.3008 -3.16406 L 26.5527 -6.41602 C 27.0312 -6.89453 27.0117 -7.54883 26.5039 -8.05664 L 25.6836 -8.87695 C 25.1855 -9.375 24.7754 -9.55078 24.2383 -9.47266 L 23.7109 -9.41406 L 23.0566 -10.0781 L 23.3398 -11.2207 C 23.4863 -11.7871 23.3398 -12.2559 22.7148 -12.8613 L 20.3027 -15.2539 C 16.7578 -18.7793 12.2266 -18.6719 9.11133 -15.5371 C 8.69141 -15.1074 8.64258 -14.5215 8.91602 -14.0918 C 9.15039 -13.7207 9.62891 -13.4961 10.2734 -13.6621 C 11.7871 -14.043 13.3008 -13.9258 14.7852 -12.9199 L 14.1602 -11.3379 C 13.9258 -10.752 13.9453 -10.2734 14.1797 -9.83398 L 3.01758 0.439453 C 2.08008 1.30859 1.97266 2.25586 2.83203 3.11523 Z M 10.6738 -15.1465 C 13.3398 -17.1387 16.6504 -16.8262 19.0527 -14.4141 L 21.6797 -11.8066 C 21.9141 -11.5723 21.9434 -11.3867 21.8848 -11.0938 L 21.5039 -9.53125 L 23.0762 -7.95898 L 24.043 -8.04688 C 24.3262 -8.07617 24.4141 -8.05664 24.6387 -7.83203 L 25.2637 -7.20703 L 22.5098 -4.46289 L 21.8848 -5.07812 C 21.6602 -5.30273 21.6406 -5.40039 21.6699 -5.68359 L 21.7578 -6.64062 L 20.1953 -8.20312 L 18.5742 -7.89062 C 18.291 -7.83203 18.1445 -7.83203 17.9102 -8.07617 L 15.7324 -10.2539 C 15.5078 -10.4883 15.4785 -10.625 15.6055 -10.9473 L 16.5527 -13.2227 C 14.9512 -14.7559 12.8418 -15.6055 10.8008 -14.9512 C 10.7129 -14.9219 10.6445 -14.9414 10.6152 -14.9805 C 10.5859 -15.0293 10.5859 -15.0781 10.6738 -15.1465 Z M 4.10156 2.41211 C 3.61328 1.91406 3.78906 1.61133 4.12109 1.30859 L 15.0781 -8.80859 L 16.3086 -7.57812 L 6.15234 3.34961 C 5.84961 3.68164 5.46875 3.7793 5.06836 3.37891 Z"/>
  </g>
  <text style="stroke:none;fill:black;font-family:-apple-system,&quot;SF Pro Display&quot;,&quot;SF Pro Text&quot;,Helvetica,sans-serif;font-weight:bold;" transform="matrix(1 0 0 1 1289 1953)">Exporting</text>
  <text style="stroke:none;fill:black;font-family:-apple-system,&quot;SF Pro Display&quot;,&quot;SF Pro Text&quot;,Helvetica,sans-serif;" transform="matrix(1 0 0 1 1289 1971)">Symbols should be outlined when exporting to ensure the</text>
  <text style="stroke:none;fill:black;font-family:-apple-system,&quot;SF Pro Display&quot;,&quot;SF Pro Text&quot;,Helvetica,sans-serif;" transform="matrix(1 0 0 1 1289 1989)">design is preserved when submitting to Xcode.</text>
  <text id="template-version" style="stroke:none;fill:black;font-family:-apple-system,&quot;SF Pro Display&quot;,&quot;SF Pro Text&quot;,Helvetica,sans-serif;text-anchor:end;" transform="matrix(1 0 0 1 3036 1933)">Template v.1.0</text>
  <text style="stroke:none;fill:black;font-family:-apple-system,&quot;SF Pro Display&quot;,&quot;SF Pro Text&quot;,Helvetica,sans-serif;text-anchor:end;" transform="matrix(1 0 0 1 3036 1951)">Generated from envelope.fill</text>
  <text style="stroke:none;fill:black;font-family:-apple-system,&quot;SF Pro Display&quot;,&quot;SF Pro Text&quot;,Helvetica,sans-serif;text-anchor:end;" transform="matrix(1 0 0 1 3036 1969)">Typeset at 100 points</text>
  <text style="stroke:none;fill:black;font-family:-apple-system,&quot;SF Pro Display&quot;,&quot;SF Pro Text&quot;,Helvetica,sans-serif;" transform="matrix(1 0 0 1 263 726)">Small</text>
  <text style="stroke:none;fill:black;font-family:-apple-system,&quot;SF Pro Display&quot;,&quot;SF Pro Text&quot;,Helvetica,sans-serif;" transform="matrix(1 0 0 1 263 1156)">Medium</text>
  <text style="stroke:none;fill:black;font-family:-apple-system,&quot;SF Pro Display&quot;,&quot;SF Pro Text&quot;,Helvetica,sans-serif;" transform="matrix(1 0 0 1 263 1586)">Large</text>
 </g>
 <g id="Guides">
  <g id="H-reference" style="fill:#27AAE1;stroke:none;" transform="matrix(1 0 0 1 339 696)">
   <path d="M 54.9316 0 L 57.666 0 L 30.5664 -70.459 L 28.0762 -70.459 L 0.976562 0 L 3.66211 0 L 12.9395 -24.4629 L 45.7031 -24.4629 Z M 29.1992 -67.0898 L 29.4434 -67.0898 L 44.8242 -26.709 L 13.8184 -26.709 Z"/>
  </g>
  <line id="Baseline-S" style="fill:none;stroke:#27AAE1;opacity:1;stroke-width:0.577;" x1="263" x2="3036" y1="696" y2="696"/>
  <line id="Capline-S" style="fill:none;stroke:#27AAE1;opacity:1;stroke-width:0.577;" x1="263" x2="3036" y1="625.541" y2="625.541"/>
  <g id="H-reference" style="fill:#27AAE1;stroke:none;" transform="matrix(1 0 0 1 339 1126)">
   <path d="M 54.9316 0 L 57.666 0 L 30.5664 -70.459 L 28.0762 -70.459 L 0.976562 0 L 3.66211 0 L 12.9395 -24.4629 L 45.7031 -24.4629 Z M 29.1992 -67.0898 L 29.4434 -67.0898 L 44.8242 -26.709 L 13.8184 -26.709 Z"/>
  </g>
  <line id="Baseline-M" style="fill:none;stroke:#27AAE1;opacity:1;stroke-width:0.577;" x1="263" x2="3036" y1="1126" y2="1126"/>
  <line id="Capline-M" style="fill:none;stroke:#27AAE1;opacity:1;stroke-width:0.577;" x1="263" x2="3036" y1="1055.54" y2="1055.54"/>
  <g id="H-reference" style="fill:#27AAE1;stroke:none;" transform="matrix(1 0 0 1 339 1556)">
   <path d="M 54.9316 0 L 57.666 0 L 30.5664 -70.459 L 28.0762 -70.459 L 0.976562 0 L 3.66211 0 L 12.9395 -24.4629 L 45.7031 -24.4629 Z M 29.1992 -67.0898 L 29.4434 -67.0898 L 44.8242 -26.709 L 13.8184 -26.709 Z"/>
  </g>
  <line id="Baseline-L" style="fill:none;stroke:#27AAE1;opacity:1;stroke-width:0.577;" x1="263" x2="3036" y1="1556" y2="1556"/>
  <line id="Capline-L" style="fill:none;stroke:#27AAE1;opacity:1;stroke-width:0.577;" x1="263" x2="3036" y1="1485.54" y2="1485.54"/>
  <rect height="119.336" id="left-margin" style="fill:#00AEEF;stroke:none;opacity:0.4;" width="12.4512" x="1383.49" y="1030.79"/>
  <rect height="119.336" id="right-margin" style="fill:#00AEEF;stroke:none;opacity:0.4;" width="12.4512" x="1503.75" y="1030.79"/>
 </g>
 <g id="Symbols">
  <g id="Black-L" transform="matrix(1 0 0 1 2842.68 1556)">
   <path d="M 90.7227 -30.9082 C 93.6523 -30.9082 96.1914 -32.373 99.3164 -35.498 L 154.639 -91.0156 C 151.855 -92.9199 147.461 -93.8965 141.455 -93.8965 L 39.3066 -93.8965 C 33.5938 -93.8965 29.3457 -92.9688 26.709 -91.0645 L 82.1289 -35.498 C 85.2539 -32.373 87.793 -30.9082 90.7227 -30.9082 Z M 18.1152 10.9863 L 65.5762 -36.4746 L 18.7988 -82.7637 C 16.9922 -80.0781 16.0645 -75.8789 16.0645 -70.1172 L 16.0645 -0.292969 C 16.0645 4.83398 16.7969 8.59375 18.1152 10.9863 Z M 163.33 11.0352 C 164.648 8.59375 165.381 4.83398 165.381 -0.292969 L 165.381 -70.1172 C 165.381 -75.8301 164.404 -80.0781 162.646 -82.7637 L 115.869 -36.4746 Z M 39.9902 23.5352 L 142.139 23.5352 C 148.438 23.5352 153.125 22.2656 156.006 19.9707 L 107.666 -28.418 L 104.785 -25.5371 C 100.146 -20.9961 95.7031 -18.8477 90.7227 -18.8477 C 85.6934 -18.8477 81.25 -20.9961 76.6113 -25.5371 L 73.7305 -28.3691 L 25.4883 19.873 C 28.5156 22.2656 33.3496 23.5352 39.9902 23.5352 Z"/>
  </g>
  <g id="Heavy-L" transform="matrix(1 0 0 1 2547.33 1556)">
   <path d="M 89.4043 -30.0781 C 92.2363 -30.0781 94.7754 -31.4941 97.7539 -34.4727 L 152.979 -89.6484 C 150.293 -91.6992 145.898 -92.7246 139.893 -92.7246 L 37.9395 -92.7246 C 32.3242 -92.7246 28.2227 -91.6992 25.6836 -89.7949 L 81.0547 -34.4727 C 84.0332 -31.4941 86.5234 -30.0781 89.4043 -30.0781 Z M 18.0176 10.5469 L 64.8438 -36.084 L 18.5059 -81.8848 C 16.8945 -79.4434 16.0645 -75.4883 16.0645 -70.0684 L 16.0645 -0.292969 C 16.0645 4.6875 16.748 8.25195 18.0176 10.5469 Z M 160.742 10.498 C 161.963 8.20312 162.646 4.63867 162.646 -0.292969 L 162.646 -70.0684 C 162.646 -75.4395 161.816 -79.3945 160.205 -81.7871 L 113.965 -36.084 Z M 38.8184 22.3633 L 140.723 22.3633 C 146.826 22.3633 151.27 21.1426 154.004 18.8477 L 106.348 -28.6133 L 103.076 -25.3906 C 98.584 -20.9961 94.2383 -18.8965 89.4043 -18.8965 C 84.5215 -18.8965 80.1758 -20.9961 75.6836 -25.3906 L 72.4121 -28.5645 L 24.8535 18.7988 C 27.6855 21.0938 32.373 22.3633 38.8184 22.3633 Z"/>
  </g>
  <g id="Bold-L" transform="matrix(1 0 0 1 2252.16 1556)">
   <path d="M 87.9395 -29.1504 C 90.6738 -29.1504 93.1641 -30.4688 96.0449 -33.3496 L 151.074 -88.1348 C 148.535 -90.2832 144.189 -91.3574 138.135 -91.3574 L 36.4258 -91.3574 C 30.9082 -91.3574 26.9043 -90.332 24.5605 -88.3301 L 79.7852 -33.3496 C 82.666 -30.5176 85.1562 -29.1504 87.9395 -29.1504 Z M 17.9199 10.0098 L 64.0137 -35.6934 L 18.1641 -80.9082 C 16.7969 -78.7109 16.0645 -75.0977 16.0645 -70.0195 L 16.0645 -0.292969 C 16.0645 4.49219 16.6992 7.91016 17.9199 10.0098 Z M 157.812 9.91211 C 158.984 7.8125 159.57 4.39453 159.57 -0.292969 L 159.57 -70.0195 C 159.57 -75 158.887 -78.5645 157.52 -80.7617 L 111.816 -35.6934 Z M 37.5 20.9961 L 139.209 20.9961 C 145.02 20.9961 149.219 19.8242 151.709 17.627 L 104.834 -28.8574 L 101.221 -25.1953 C 96.8262 -20.9961 92.627 -18.9941 87.9395 -18.9941 C 83.2031 -18.9941 78.9551 -20.9961 74.6094 -25.1953 L 70.9473 -28.8086 L 24.1699 17.627 C 26.8066 19.8242 31.2988 20.9961 37.5 20.9961 Z"/>
  </g>
  <g id="Semibold-L" transform="matrix(1 0 0 1 1956.5 1556)">
   <path d="M 86.9141 -28.5156 C 89.5996 -28.5156 92.0898 -29.834 94.873 -32.6172 L 149.756 -87.0605 C 147.363 -89.3066 143.018 -90.4297 136.914 -90.4297 L 35.4004 -90.4297 C 29.9316 -90.4297 26.0254 -89.4043 23.7793 -87.3047 L 78.9551 -32.6172 C 81.6895 -29.834 84.2285 -28.5156 86.9141 -28.5156 Z M 17.8711 9.66797 L 63.4277 -35.4004 L 17.9688 -80.2246 C 16.6992 -78.1738 16.0645 -74.8047 16.0645 -70.0195 L 16.0645 -0.341797 C 16.0645 4.3457 16.6992 7.66602 17.8711 9.66797 Z M 155.762 9.52148 C 156.885 7.51953 157.471 4.24805 157.471 -0.341797 L 157.471 -70.0195 C 157.471 -74.6582 156.836 -78.0273 155.664 -80.0293 L 110.352 -35.4004 Z M 36.6211 20.0684 L 138.135 20.0684 C 143.799 20.0684 147.803 18.9453 150.098 16.7969 L 103.809 -29.0039 L 99.9023 -25.0977 C 95.6543 -20.9961 91.5039 -19.043 86.9141 -19.043 C 82.3242 -19.043 78.125 -20.9961 73.877 -25.0977 L 69.9707 -28.9551 L 23.6816 16.7969 C 26.1719 18.9453 30.5176 20.0684 36.6211 20.0684 Z"/>
  </g>
  <g id="Medium-L" transform="matrix(1 0 0 1 1660.59 1556)">
   <path d="M 86.1328 -28.0762 C 88.7695 -28.0762 91.2598 -29.2969 93.9453 -32.0312 L 148.779 -86.2793 C 146.436 -88.5742 142.139 -89.6973 135.986 -89.6973 L 34.6191 -89.6973 C 29.1992 -89.6973 25.3418 -88.6719 23.1934 -86.5723 L 78.2715 -32.0312 C 80.957 -29.3457 83.4961 -28.0762 86.1328 -28.0762 Z M 17.8223 9.375 L 62.9883 -35.1562 L 17.7734 -79.6875 C 16.6504 -77.7832 16.0645 -74.5605 16.0645 -69.9707 L 16.0645 -0.341797 C 16.0645 4.24805 16.6504 7.4707 17.8223 9.375 Z M 154.248 9.17969 C 155.322 7.27539 155.859 4.15039 155.859 -0.341797 L 155.859 -69.9707 C 155.859 -74.4141 155.322 -77.6367 154.248 -79.4434 L 109.229 -35.1562 Z M 35.9375 19.3848 L 137.305 19.3848 C 142.871 19.3848 146.729 18.2617 148.926 16.1621 L 103.027 -29.1016 L 98.9258 -25 C 94.7266 -20.9961 90.625 -19.043 86.1328 -19.043 C 81.6406 -19.043 77.5391 -20.9961 73.3398 -25 L 69.1895 -29.1016 L 23.291 16.1621 C 25.7324 18.3105 29.9316 19.3848 35.9375 19.3848 Z"/>
  </g>
  <g id="Regular-L" transform="matrix(1 0 0 1 1364.91 1556)">
   <path d="M 85.1074 -27.4414 C 87.6953 -27.4414 90.1855 -28.6133 92.7734 -31.25 L 147.51 -85.2539 C 145.215 -87.5977 140.967 -88.7695 134.766 -88.7695 L 33.5938 -88.7695 C 28.2227 -88.7695 24.4629 -87.6953 22.4121 -85.5957 L 77.4414 -31.25 C 80.0293 -28.6621 82.5684 -27.4414 85.1074 -27.4414 Z M 17.7734 9.0332 L 62.4512 -34.8633 L 17.5781 -79.0039 C 16.6016 -77.2949 16.0645 -74.2676 16.0645 -69.9707 L 16.0645 -0.341797 C 16.0645 4.10156 16.6504 7.22656 17.7734 9.0332 Z M 152.246 8.78906 C 153.271 7.03125 153.809 3.95508 153.809 -0.341797 L 153.809 -69.9707 C 153.809 -74.1211 153.32 -77.0508 152.393 -78.7598 L 107.764 -34.8633 Z M 35.0586 18.457 L 136.279 18.457 C 141.65 18.457 145.312 17.3828 147.363 15.332 L 102.051 -29.248 L 97.6074 -24.9023 C 93.5547 -20.9961 89.502 -19.0918 85.1074 -19.0918 C 80.7129 -19.0918 76.709 -20.9961 72.6074 -24.9023 L 68.2129 -29.248 L 22.8516 15.332 C 25.0977 17.4316 29.1992 18.457 35.0586 18.457 Z"/>
  </g>
  <g id="Light-L" transform="matrix(1 0 0 1 1069.15 1556)">
   <path d="M 84.2773 -26.7578 C 86.8164 -26.7578 89.3555 -27.9785 91.7969 -30.4199 L 146.387 -84.082 C 144.238 -86.5723 140.039 -87.8418 133.936 -87.8418 L 33.1055 -87.8418 C 27.6367 -87.8418 23.8281 -86.7188 21.7773 -84.4727 L 76.7578 -30.4199 C 79.1504 -28.0273 81.7871 -26.7578 84.2773 -26.7578 Z M 17.8711 9.0332 L 62.8418 -34.6191 L 17.627 -78.8574 C 16.6016 -77.1973 16.0645 -74.2676 16.0645 -69.9707 L 16.0645 -0.292969 C 16.0645 4.15039 16.6992 7.32422 17.8711 9.0332 Z M 150.293 8.69141 C 151.367 6.98242 151.904 3.95508 151.904 -0.292969 L 151.904 -69.9707 C 151.904 -74.0234 151.416 -76.8555 150.488 -78.4668 L 105.762 -34.6191 Z M 34.0332 17.5293 L 134.863 17.5293 C 140.332 17.5293 144.092 16.4551 146.094 14.2578 L 100.83 -29.834 L 96.1426 -25.1953 C 92.334 -21.582 88.4277 -19.7754 84.2773 -19.7754 C 80.1758 -19.7754 76.2207 -21.582 72.4121 -25.1953 L 67.7246 -29.834 L 22.2656 14.4531 C 24.4141 16.5039 28.3203 17.5293 34.0332 17.5293 Z"/>
  </g>
  <g id="Thin-L" transform="matrix(1 0 0 1 773.683 1556)">
   <path d="M 83.2031 -25.9277 C 85.6934 -25.9277 88.3301 -27.1484 90.5273 -29.3457 L 144.873 -82.5684 C 142.92 -85.2539 138.867 -86.5723 132.812 -86.5723 L 32.4707 -86.5723 C 26.8066 -86.5723 22.9492 -85.4004 20.9961 -83.0566 L 75.8301 -29.3457 C 77.9785 -27.1973 80.7617 -25.9277 83.2031 -25.9277 Z M 18.0664 9.08203 L 63.3301 -34.2285 L 17.7246 -78.6621 C 16.6016 -77.0996 16.0645 -74.2188 16.0645 -70.0195 L 16.0645 -0.244141 C 16.0645 4.24805 16.748 7.42188 18.0664 9.08203 Z M 147.705 8.49609 C 148.877 6.88477 149.414 3.95508 149.414 -0.244141 L 149.414 -70.0195 C 149.414 -73.9258 148.926 -76.6113 147.998 -78.0762 L 103.076 -34.2285 Z M 32.666 16.3574 L 133.008 16.3574 C 138.672 16.3574 142.432 15.1855 144.385 12.8418 L 99.2676 -30.5176 L 94.1895 -25.5859 C 90.7715 -22.3633 86.9629 -20.6543 83.2031 -20.6543 C 79.3945 -20.6543 75.5859 -22.3633 72.168 -25.5859 L 67.1387 -30.5176 L 21.582 13.2324 C 23.4863 15.332 27.1973 16.3574 32.666 16.3574 Z"/>
  </g>
  <g id="Ultralight-L" transform="matrix(1 0 0 1 477.607 1556)">
   <path d="M 82.6172 -25.4883 C 85.1074 -25.4883 87.793 -26.709 89.8926 -28.8086 L 144.141 -81.7871 C 142.236 -84.5703 138.232 -85.9375 132.227 -85.9375 L 32.1289 -85.9375 C 26.416 -85.9375 22.5098 -84.7168 20.6055 -82.3242 L 75.3418 -28.8086 C 77.3926 -26.7578 80.2246 -25.4883 82.6172 -25.4883 Z M 18.1641 9.13086 L 63.5742 -34.0332 L 17.7734 -78.5645 C 16.6504 -77.0508 16.0645 -74.1699 16.0645 -70.0195 L 16.0645 -0.195312 C 16.0645 4.29688 16.7969 7.4707 18.1641 9.13086 Z M 146.338 8.44727 C 147.559 6.83594 148.145 3.95508 148.145 -0.195312 L 148.145 -70.0195 C 148.145 -73.8281 147.656 -76.4648 146.729 -77.8809 L 101.66 -34.0332 Z M 31.9824 15.7227 L 132.031 15.7227 C 137.793 15.7227 141.602 14.502 143.506 12.1094 L 98.4375 -30.9082 L 93.1641 -25.7812 C 89.9902 -22.7539 86.2305 -21.0938 82.6172 -21.0938 C 79.0039 -21.0938 75.2441 -22.7539 72.0703 -25.7812 L 66.7969 -30.9082 L 21.1914 12.5977 C 22.998 14.6973 26.6602 15.7227 31.9824 15.7227 Z"/>
  </g>
  <g id="Black-M" transform="matrix(1 0 0 1 2861.74 1126)">
   <path d="M 71.6309 -32.666 C 74.0234 -32.666 76.0254 -33.8379 78.5156 -36.3281 L 121.533 -79.6875 C 119.287 -81.1035 115.869 -81.8359 111.328 -81.8359 L 32.0312 -81.8359 C 27.3926 -81.8359 23.9746 -81.1035 21.7773 -79.6875 L 64.7461 -36.3281 C 67.2852 -33.8379 69.2871 -32.666 71.6309 -32.666 Z M 129.053 1.26953 C 130.225 -0.830078 130.859 -3.90625 130.859 -8.10547 L 130.859 -62.3047 C 130.859 -67.1875 129.932 -70.8496 128.32 -73.1934 L 91.3086 -36.5234 Z M 14.209 1.26953 L 52.002 -36.5234 L 14.9902 -73.1934 C 13.3301 -70.8496 12.4512 -67.1875 12.4512 -62.3047 L 12.4512 -8.10547 C 12.4512 -3.90625 13.0859 -0.830078 14.209 1.26953 Z M 31.9824 11.4746 L 111.279 11.4746 C 116.553 11.4746 120.508 10.4004 122.998 8.44727 L 84.5703 -29.9805 L 82.666 -28.0762 C 79.0527 -24.5117 75.5859 -22.8027 71.6309 -22.8027 C 67.7246 -22.8027 64.1602 -24.5117 60.5469 -28.0762 L 58.6426 -29.8828 L 20.2637 8.44727 C 22.8027 10.4004 26.709 11.4746 31.9824 11.4746 Z"/>
  </g>
  <g id="Heavy-M" transform="matrix(1 0 0 1 2566.3 1126)">
   <path d="M 70.4102 -31.9336 C 72.7051 -31.9336 74.6582 -33.0566 77.0996 -35.4492 L 119.971 -78.4668 C 117.822 -79.9805 114.404 -80.7617 109.814 -80.7617 L 30.6641 -80.7617 C 26.1719 -80.7617 22.8516 -80.0293 20.8008 -78.5156 L 63.7207 -35.4492 C 66.1621 -33.0566 68.1152 -31.9336 70.4102 -31.9336 Z M 14.0625 0.732422 L 51.123 -36.1816 L 14.6484 -72.2656 C 13.2324 -70.166 12.4512 -66.7969 12.4512 -62.2559 L 12.4512 -8.10547 C 12.4512 -4.10156 13.0371 -1.17188 14.0625 0.732422 Z M 126.709 0.732422 C 127.783 -1.2207 128.32 -4.10156 128.32 -8.10547 L 128.32 -62.2559 C 128.32 -66.7969 127.588 -70.1172 126.172 -72.2168 L 89.7461 -36.1816 Z M 31.0059 10.3516 L 110.107 10.3516 C 115.088 10.3516 118.799 9.375 121.094 7.51953 L 83.4473 -30.0293 L 81.25 -27.832 C 77.6855 -24.3652 74.2676 -22.7051 70.4102 -22.7051 C 66.5527 -22.7051 63.0859 -24.3652 59.5703 -27.832 L 57.3242 -29.9805 L 19.7266 7.51953 C 22.1191 9.375 25.8789 10.3516 31.0059 10.3516 Z"/>
  </g>
  <g id="Bold-M" transform="matrix(1 0 0 1 2270.98 1126)">
   <path d="M 69.043 -31.1035 C 71.2402 -31.1035 73.1934 -32.1777 75.4883 -34.4727 L 118.262 -77.1484 C 116.211 -78.7598 112.793 -79.541 108.105 -79.541 L 29.1504 -79.541 C 24.8047 -79.541 21.6309 -78.8086 19.7266 -77.2461 L 62.5977 -34.4727 C 64.8926 -32.1777 66.8457 -31.1035 69.043 -31.1035 Z M 13.9648 0.146484 L 50.0977 -35.8398 L 14.2578 -71.2402 C 13.0859 -69.3359 12.4512 -66.3574 12.4512 -62.207 L 12.4512 -8.1543 C 12.4512 -4.3457 12.9883 -1.61133 13.9648 0.146484 Z M 124.072 0.0976562 C 125.049 -1.66016 125.537 -4.3457 125.537 -8.1543 L 125.537 -62.207 C 125.537 -66.3086 124.902 -69.3359 123.73 -71.1426 L 87.9883 -35.8398 Z M 29.8828 9.17969 L 108.838 9.17969 C 113.525 9.17969 116.895 8.25195 118.945 6.49414 L 82.1777 -30.127 L 79.5898 -27.5391 C 76.123 -24.1699 72.8027 -22.6074 69.043 -22.6074 C 65.2832 -22.6074 61.9141 -24.1699 58.4473 -27.5391 L 55.8594 -30.0781 L 19.1406 6.44531 C 21.3379 8.25195 24.9023 9.17969 29.8828 9.17969 Z"/>
  </g>
  <g id="Semibold-M" transform="matrix(1 0 0 1 1975.22 1126)">
   <path d="M 68.1152 -30.5176 C 70.2148 -30.5176 72.1191 -31.543 74.3652 -33.7891 L 117.041 -76.2695 C 115.088 -77.8809 111.719 -78.7109 106.982 -78.7109 L 28.125 -78.7109 C 23.877 -78.7109 20.8008 -77.9297 18.9941 -76.416 L 61.8164 -33.7891 C 64.0625 -31.543 65.9668 -30.5176 68.1152 -30.5176 Z M 13.8672 -0.244141 L 49.4141 -35.5469 L 14.0137 -70.5078 C 12.9883 -68.7988 12.4512 -66.0645 12.4512 -62.207 L 12.4512 -8.20312 C 12.4512 -4.49219 12.9395 -1.85547 13.8672 -0.244141 Z M 122.266 -0.292969 C 123.145 -1.95312 123.633 -4.54102 123.633 -8.20312 L 123.633 -62.207 C 123.633 -65.9668 123.096 -68.75 122.07 -70.4102 L 86.7676 -35.5469 Z M 29.1016 8.34961 L 107.959 8.34961 C 112.402 8.34961 115.576 7.4707 117.48 5.81055 L 81.2988 -30.1758 L 78.4668 -27.3926 C 75.0488 -24.0723 71.7773 -22.5098 68.1152 -22.5098 C 64.4043 -22.5098 61.1328 -24.0723 57.7148 -27.3926 L 54.8828 -30.1758 L 18.75 5.76172 C 20.8008 7.4707 24.2676 8.34961 29.1016 8.34961 Z"/>
  </g>
  <g id="Medium-M" transform="matrix(1 0 0 1 1679.25 1126)">
   <path d="M 67.3828 -30.127 C 69.4824 -30.127 71.3379 -31.1035 73.5352 -33.3008 L 116.113 -75.5371 C 114.209 -77.2461 110.84 -78.0762 106.104 -78.0762 L 27.3438 -78.0762 C 23.1445 -78.0762 20.166 -77.2949 18.457 -75.7324 L 61.2305 -33.3008 C 63.3789 -31.1035 65.2832 -30.127 67.3828 -30.127 Z M 13.7695 -0.585938 L 48.877 -35.3516 L 13.8184 -69.9707 C 12.9395 -68.4082 12.4512 -65.8203 12.4512 -62.1582 L 12.4512 -8.20312 C 12.4512 -4.63867 12.8906 -2.09961 13.7695 -0.585938 Z M 120.898 -0.634766 C 121.729 -2.14844 122.168 -4.6875 122.168 -8.20312 L 122.168 -62.1582 C 122.168 -65.7227 121.68 -68.3105 120.801 -69.8242 L 85.8887 -35.3516 Z M 28.5156 7.71484 L 107.275 7.71484 C 111.572 7.71484 114.6 6.88477 116.357 5.27344 L 80.6152 -30.2246 L 77.5879 -27.2461 C 74.2188 -23.9746 70.9961 -22.4121 67.3828 -22.4121 C 63.7695 -22.4121 60.498 -23.9746 57.1289 -27.2461 L 54.1016 -30.2246 L 18.4082 5.17578 C 20.3613 6.83594 23.7793 7.71484 28.5156 7.71484 Z"/>
  </g>
  <g id="Regular-M" transform="matrix(1 0 0 1 1383.49 1126)">
   <path d="M 66.4551 -29.541 C 68.457 -29.541 70.3125 -30.4688 72.4609 -32.6172 L 114.941 -74.6582 C 113.135 -76.416 109.766 -77.2461 104.932 -77.2461 L 26.3184 -77.2461 C 22.2168 -77.2461 19.3359 -76.4648 17.7246 -74.8535 L 60.4492 -32.6172 C 62.5488 -30.5176 64.4043 -29.541 66.4551 -29.541 Z M 13.6719 -0.976562 L 48.1934 -35.1074 L 13.5742 -69.2383 C 12.8418 -67.8711 12.4512 -65.5273 12.4512 -62.1582 L 12.4512 -8.25195 C 12.4512 -4.78516 12.8418 -2.34375 13.6719 -0.976562 Z M 119.092 -1.02539 C 119.873 -2.44141 120.264 -4.83398 120.264 -8.25195 L 120.264 -62.1582 C 120.264 -65.4297 119.873 -67.7734 119.189 -69.0918 L 84.668 -35.1074 Z M 27.7832 6.88477 L 106.396 6.88477 C 110.498 6.88477 113.33 6.10352 114.941 4.54102 L 79.7363 -30.3223 L 76.5137 -27.0508 C 73.1445 -23.8281 69.9707 -22.3633 66.4551 -22.3633 C 62.8906 -22.3633 59.7168 -23.8281 56.3965 -27.0508 L 53.125 -30.3223 L 18.0176 4.49219 C 19.873 6.10352 23.0957 6.88477 27.7832 6.88477 Z"/>
  </g>
  <g id="Light-M" transform="matrix(1 0 0 1 1087.63 1126)">
   <path d="M 65.6738 -28.9551 C 67.6758 -28.9551 69.6289 -29.8828 71.582 -31.8848 L 113.916 -73.6328 C 112.207 -75.4883 108.936 -76.416 104.199 -76.416 L 25.8789 -76.416 C 21.6797 -76.416 18.75 -75.5859 17.1875 -73.877 L 59.8145 -31.8848 C 61.7188 -29.9316 63.7207 -28.9551 65.6738 -28.9551 Z M 13.8184 -0.927734 L 48.5352 -34.8633 L 13.623 -69.1406 C 12.8418 -67.8223 12.4512 -65.4785 12.4512 -62.1582 L 12.4512 -8.20312 C 12.4512 -4.73633 12.9395 -2.29492 13.8184 -0.927734 Z M 117.334 -1.17188 C 118.164 -2.49023 118.555 -4.83398 118.555 -8.20312 L 118.555 -62.1582 C 118.555 -65.332 118.213 -67.5781 117.48 -68.8477 L 82.8613 -34.8633 Z M 26.8555 6.10352 L 105.127 6.10352 C 109.326 6.10352 112.207 5.22461 113.77 3.61328 L 78.6621 -30.8105 L 75.1953 -27.3438 C 72.1191 -24.3652 68.9941 -22.9492 65.6738 -22.9492 C 62.3535 -22.9492 59.2773 -24.3652 56.2012 -27.3438 L 52.6855 -30.8105 L 17.5293 3.66211 C 19.2383 5.27344 22.3633 6.10352 26.8555 6.10352 Z"/>
  </g>
  <g id="Thin-M" transform="matrix(1 0 0 1 792.018 1126)">
   <path d="M 64.6973 -28.2227 C 66.6504 -28.2227 68.6523 -29.1504 70.459 -30.9082 L 112.598 -72.2656 C 111.035 -74.2676 107.861 -75.293 103.174 -75.293 L 25.293 -75.293 C 20.9473 -75.293 17.9688 -74.4141 16.4551 -72.6074 L 58.9844 -30.9082 C 60.6934 -29.1992 62.793 -28.2227 64.6973 -28.2227 Z M 13.9648 -0.878906 L 48.9746 -34.5215 L 13.7207 -68.9453 C 12.8906 -67.7246 12.4512 -65.4297 12.4512 -62.1582 L 12.4512 -8.10547 C 12.4512 -4.63867 12.9883 -2.19727 13.9648 -0.878906 Z M 115.039 -1.31836 C 115.918 -2.58789 116.357 -4.83398 116.357 -8.10547 L 116.357 -62.1582 C 116.357 -65.2344 115.967 -67.334 115.234 -68.5059 L 80.4688 -34.5215 Z M 25.6348 5.0293 L 103.467 5.0293 C 107.812 5.0293 110.742 4.10156 112.256 2.34375 L 77.2461 -31.4453 L 73.4375 -27.6855 C 70.7031 -25.0977 67.7246 -23.7305 64.6973 -23.7305 C 61.7188 -23.7305 58.6914 -25.0977 56.0059 -27.6855 L 52.1484 -31.4453 L 16.8457 2.58789 C 18.4082 4.19922 21.3379 5.0293 25.6348 5.0293 Z"/>
  </g>
  <g id="Ultralight-M" transform="matrix(1 0 0 1 495.893 1126)">
   <path d="M 64.209 -27.832 C 66.1133 -27.832 68.2129 -28.7598 69.873 -30.4199 L 111.914 -71.5332 C 110.449 -73.6816 107.324 -74.707 102.637 -74.707 L 25 -74.707 C 20.6055 -74.707 17.5781 -73.7793 16.0645 -71.9238 L 58.5449 -30.4199 C 60.1562 -28.8086 62.3535 -27.832 64.209 -27.832 Z M 14.0625 -0.878906 L 49.1699 -34.375 L 13.7695 -68.8477 C 12.8906 -67.6758 12.4512 -65.4297 12.4512 -62.207 L 12.4512 -8.10547 C 12.4512 -4.58984 13.0371 -2.14844 14.0625 -0.878906 Z M 113.818 -1.36719 C 114.746 -2.58789 115.186 -4.83398 115.186 -8.10547 L 115.186 -62.207 C 115.186 -65.1855 114.795 -67.2363 114.062 -68.3105 L 79.1992 -34.375 Z M 25 4.44336 L 102.637 4.44336 C 107.08 4.44336 110.01 3.51562 111.475 1.66016 L 76.5137 -31.7871 L 72.5098 -27.8809 C 69.9707 -25.4395 67.041 -24.1211 64.209 -24.1211 C 61.3281 -24.1211 58.3984 -25.4395 55.8594 -27.8809 L 51.8555 -31.7871 L 16.5527 2.05078 C 17.9688 3.66211 20.8008 4.44336 25 4.44336 Z"/>
  </g>
  <g id="Black-S" transform="matrix(1 0 0 1 2877.35 696)">
   <path d="M 56.0547 -33.1543 C 57.9102 -33.1543 59.4727 -34.082 61.4258 -36.0352 L 95.1172 -69.9707 C 93.3594 -71.0938 90.6738 -71.6797 87.1094 -71.6797 L 25 -71.6797 C 21.3867 -71.6797 18.7012 -71.0938 16.9922 -69.9707 L 50.6836 -36.0352 C 52.6367 -34.082 54.1992 -33.1543 56.0547 -33.1543 Z M 11.1328 -6.68945 L 40.6738 -36.2305 L 11.7188 -64.8926 C 10.4492 -63.0859 9.76562 -60.2539 9.76562 -56.4453 L 9.76562 -13.9648 C 9.76562 -10.6934 10.2539 -8.30078 11.1328 -6.68945 Z M 100.977 -6.68945 C 101.855 -8.30078 102.344 -10.6934 102.344 -13.9648 L 102.344 -56.4453 C 102.344 -60.2539 101.66 -63.0859 100.391 -64.8926 L 71.4355 -36.2305 Z M 25 1.26953 L 87.1094 1.26953 C 91.2109 1.26953 94.2871 0.439453 96.2402 -1.07422 L 66.2109 -31.1035 L 64.6973 -29.5898 C 61.8652 -26.8066 59.1309 -25.4883 56.0547 -25.4883 C 52.9785 -25.4883 50.1953 -26.8066 47.3633 -29.5898 L 45.8496 -31.0547 L 15.8691 -1.07422 C 17.8223 0.439453 20.8984 1.26953 25 1.26953 Z"/>
  </g>
  <g id="Heavy-S" transform="matrix(1 0 0 1 2581.49 696)">
   <path d="M 55.1758 -32.666 C 56.9824 -32.666 58.5449 -33.5449 60.4492 -35.4492 L 94.043 -69.1895 C 92.334 -70.3613 89.6484 -70.9473 86.0352 -70.9473 L 24.0234 -70.9473 C 20.5078 -70.9473 17.9199 -70.3613 16.3086 -69.1895 L 49.9512 -35.4492 C 51.8555 -33.5449 53.418 -32.666 55.1758 -32.666 Z M 11.0352 -7.08008 L 39.9414 -35.9863 L 11.4746 -64.209 C 10.3516 -62.5488 9.76562 -59.9609 9.76562 -56.3965 L 9.76562 -14.0137 C 9.76562 -10.8398 10.2051 -8.59375 11.0352 -7.08008 Z M 99.3652 -7.08008 C 100.195 -8.59375 100.635 -10.8887 100.635 -14.0137 L 100.635 -56.3965 C 100.635 -59.9609 100.049 -62.5488 98.9258 -64.209 L 70.459 -35.9863 Z M 24.3652 0.537109 L 86.377 0.537109 C 90.2344 0.537109 93.1152 -0.244141 94.9219 -1.66016 L 65.4785 -31.1035 L 63.7207 -29.3945 C 60.9375 -26.6113 58.252 -25.3418 55.1758 -25.3418 C 52.1484 -25.3418 49.4629 -26.6113 46.6309 -29.3945 L 44.9219 -31.0547 L 15.5273 -1.70898 C 17.3828 -0.244141 20.3125 0.537109 24.3652 0.537109 Z"/>
  </g>
  <g id="Bold-S" transform="matrix(1 0 0 1 2285.75 696)">
   <path d="M 54.248 -32.1289 C 55.957 -32.1289 57.4707 -32.959 59.3262 -34.7656 L 92.8223 -68.3105 C 91.2109 -69.5312 88.5254 -70.1172 84.8633 -70.1172 L 22.9004 -70.1172 C 19.5312 -70.1172 17.0898 -69.5312 15.5762 -68.3594 L 49.1699 -34.7656 C 51.0254 -32.959 52.4902 -32.1289 54.248 -32.1289 Z M 10.8887 -7.51953 L 39.1602 -35.7422 L 11.1816 -63.4277 C 10.2539 -61.9629 9.76562 -59.6191 9.76562 -56.3965 L 9.76562 -14.0137 C 9.76562 -11.0352 10.1562 -8.88672 10.8887 -7.51953 Z M 97.5586 -7.51953 C 98.291 -8.93555 98.6816 -11.084 98.6816 -14.0137 L 98.6816 -56.3965 C 98.6816 -59.5703 98.1934 -61.9629 97.3145 -63.3789 L 69.3359 -35.7422 Z M 23.6328 -0.292969 L 85.5469 -0.292969 C 89.1602 -0.292969 91.7969 -0.976562 93.4082 -2.34375 L 64.5996 -31.1035 L 62.6465 -29.1504 C 59.8633 -26.416 57.2266 -25.1465 54.248 -25.1465 C 51.2695 -25.1465 48.584 -26.416 45.8008 -29.1504 L 43.8477 -31.1035 L 15.1367 -2.39258 C 16.8457 -1.02539 19.6777 -0.292969 23.6328 -0.292969 Z"/>
  </g>
  <g id="Semibold-S" transform="matrix(1 0 0 1 1989.7 696)">
   <path d="M 53.5645 -31.7383 C 55.2734 -31.7383 56.7383 -32.5195 58.5449 -34.3262 L 91.9922 -67.6758 C 90.4297 -68.9453 87.7441 -69.5801 84.0332 -69.5801 L 22.168 -69.5801 C 18.8477 -69.5801 16.4551 -68.9453 15.0391 -67.7734 L 48.6328 -34.3262 C 50.4395 -32.5195 51.9043 -31.7383 53.5645 -31.7383 Z M 10.791 -7.86133 L 38.5742 -35.5957 L 10.9863 -62.8906 C 10.2051 -61.5234 9.76562 -59.375 9.76562 -56.3477 L 9.76562 -14.0625 C 9.76562 -11.1816 10.1074 -9.13086 10.791 -7.86133 Z M 96.3379 -7.86133 C 97.0215 -9.13086 97.3633 -11.1816 97.3633 -14.0625 L 97.3633 -56.3477 C 97.3633 -59.3262 96.9727 -61.5234 96.1426 -62.8418 L 68.5547 -35.5957 Z M 23.0957 -0.830078 L 84.9609 -0.830078 C 88.4277 -0.830078 90.918 -1.51367 92.3828 -2.7832 L 64.0137 -31.1035 L 61.9141 -29.0039 C 59.1309 -26.3184 56.543 -25.0488 53.5645 -25.0488 C 50.6348 -25.0488 47.998 -26.3184 45.2637 -29.0039 L 43.1152 -31.1035 L 14.8438 -2.88086 C 16.5039 -1.5625 19.2383 -0.830078 23.0957 -0.830078 Z"/>
  </g>
  <g id="Medium-S" transform="matrix(1 0 0 1 1693.48 696)">
   <path d="M 53.0762 -31.4453 C 54.7363 -31.4453 56.2012 -32.2266 57.959 -33.9844 L 91.3574 -67.2363 C 89.8438 -68.5059 87.1582 -69.1406 83.3984 -69.1406 L 21.582 -69.1406 C 18.3594 -69.1406 16.0156 -68.5547 14.6484 -67.334 L 48.1934 -33.9844 C 49.9512 -32.2266 51.416 -31.4453 53.0762 -31.4453 Z M 10.7422 -8.10547 L 38.1348 -35.4492 L 10.791 -62.5 C 10.1074 -61.2305 9.76562 -59.2285 9.76562 -56.3477 L 9.76562 -14.0625 C 9.76562 -11.2793 10.1074 -9.27734 10.7422 -8.10547 Z M 95.4102 -8.10547 C 96.0449 -9.32617 96.3867 -11.2793 96.3867 -14.0625 L 96.3867 -56.3477 C 96.3867 -59.1797 95.9961 -61.2305 95.3125 -62.4512 L 68.0176 -35.4492 Z M 22.7051 -1.26953 L 84.5703 -1.26953 C 87.8418 -1.26953 90.2344 -1.9043 91.6016 -3.125 L 63.5742 -31.1035 L 61.3281 -28.8574 C 58.5449 -26.1719 56.0059 -24.9512 53.0762 -24.9512 C 50.1465 -24.9512 47.5586 -26.1719 44.8242 -28.8574 L 42.5293 -31.1035 L 14.6484 -3.22266 C 16.2109 -1.95312 18.8965 -1.26953 22.7051 -1.26953 Z"/>
  </g>
  <g id="Regular-S" transform="matrix(1 0 0 1 1397.43 696)">
   <path d="M 52.4414 -31.0547 C 54.0527 -31.0547 55.4688 -31.7871 57.1777 -33.5449 L 90.5762 -66.6016 C 89.0625 -67.9199 86.377 -68.5547 82.6172 -68.5547 L 20.8496 -68.5547 C 17.6758 -68.5547 15.4297 -67.9688 14.1602 -66.748 L 47.6562 -33.5449 C 49.3652 -31.7871 50.8301 -31.0547 52.4414 -31.0547 Z M 10.6445 -8.39844 L 37.5977 -35.2539 L 10.5957 -61.9629 C 10.0586 -60.8398 9.76562 -58.9844 9.76562 -56.2988 L 9.76562 -14.1113 C 9.76562 -11.4258 10.0586 -9.52148 10.6445 -8.39844 Z M 94.1895 -8.39844 C 94.7754 -9.52148 95.0684 -11.4258 95.0684 -14.1113 L 95.0684 -56.2988 C 95.0684 -58.9355 94.7754 -60.791 94.1895 -61.9141 L 67.2363 -35.2539 Z M 22.2168 -1.85547 L 83.9844 -1.85547 C 87.1094 -1.85547 89.3066 -2.44141 90.625 -3.61328 L 63.0371 -31.1523 L 60.5957 -28.7109 C 57.8613 -26.0742 55.3223 -24.8535 52.4414 -24.8535 C 49.5117 -24.8535 47.0215 -26.0742 44.2383 -28.7109 L 41.8457 -31.1523 L 14.3555 -3.71094 C 15.8691 -2.49023 18.5059 -1.85547 22.2168 -1.85547 Z"/>
  </g>
  <g id="Light-S" transform="matrix(1 0 0 1 1101.47 696)">
   <path d="M 51.7578 -30.5664 C 53.3203 -30.5664 54.834 -31.2988 56.4453 -32.8613 L 89.6484 -65.7227 C 88.2812 -67.1387 85.6934 -67.8223 81.9336 -67.8223 L 20.459 -67.8223 C 17.1875 -67.8223 14.9414 -67.1875 13.6719 -65.918 L 47.1191 -32.8613 C 48.6816 -31.2988 50.1953 -30.5664 51.7578 -30.5664 Z M 10.791 -8.34961 L 37.8906 -35.0586 L 10.6934 -61.8164 C 10.0586 -60.791 9.76562 -58.9355 9.76562 -56.2988 L 9.76562 -14.0625 C 9.76562 -11.377 10.1074 -9.47266 10.791 -8.34961 Z M 92.627 -8.49609 C 93.2617 -9.57031 93.5547 -11.4258 93.5547 -14.0625 L 93.5547 -56.2988 C 93.5547 -58.8379 93.2617 -60.6445 92.6758 -61.6699 L 65.625 -35.0586 Z M 21.3867 -2.53906 L 82.8613 -2.53906 C 86.1328 -2.53906 88.3301 -3.17383 89.5996 -4.44336 L 62.0605 -31.543 L 59.4238 -28.9551 C 56.8848 -26.5137 54.4434 -25.3906 51.7578 -25.3906 C 49.0723 -25.3906 46.6309 -26.5137 44.0918 -28.9551 L 41.4551 -31.543 L 13.916 -4.44336 C 15.332 -3.17383 17.8223 -2.53906 21.3867 -2.53906 Z"/>
  </g>
  <g id="Thin-S" transform="matrix(1 0 0 1 805.739 696)">
   <path d="M 50.8789 -29.8828 C 52.4414 -29.8828 54.0039 -30.6152 55.4199 -32.0312 L 88.4766 -64.502 C 87.2559 -66.0645 84.7168 -66.8457 81.0547 -66.8457 L 19.9707 -66.8457 C 16.5527 -66.8457 14.2578 -66.1621 13.0371 -64.7461 L 46.3867 -32.0312 C 47.7539 -30.6641 49.4141 -29.8828 50.8789 -29.8828 Z M 10.9375 -8.34961 L 38.2812 -34.7656 L 10.7422 -61.6699 C 10.1074 -60.6934 9.76562 -58.9355 9.76562 -56.3477 L 9.76562 -14.0137 C 9.76562 -11.2793 10.1562 -9.375 10.9375 -8.34961 Z M 90.5762 -8.59375 C 91.2598 -9.61914 91.6016 -11.4258 91.6016 -14.0137 L 91.6016 -56.3477 C 91.6016 -58.7402 91.3086 -60.4492 90.7227 -61.377 L 63.4766 -34.7656 Z M 20.3125 -3.51562 L 81.3965 -3.51562 C 84.7656 -3.51562 87.0605 -4.19922 88.2324 -5.56641 L 60.791 -32.1289 L 57.8613 -29.248 C 55.6641 -27.1484 53.3203 -26.0742 50.8789 -26.0742 C 48.4863 -26.0742 46.1426 -27.1484 43.9453 -29.248 L 40.9668 -32.1289 L 13.3301 -5.41992 C 14.5996 -4.15039 16.9434 -3.51562 20.3125 -3.51562 Z"/>
  </g>
  <g id="Ultralight-S" transform="matrix(1 0 0 1 509.54 696)">
   <path d="M 50.4395 -29.541 C 51.9531 -29.541 53.5645 -30.2734 54.8828 -31.5918 L 87.8906 -63.8672 C 86.7188 -65.5273 84.2285 -66.3086 80.5664 -66.3086 L 19.6777 -66.3086 C 16.2598 -66.3086 13.916 -65.625 12.6953 -64.1602 L 45.9961 -31.5918 C 47.2656 -30.3223 48.9746 -29.541 50.4395 -29.541 Z M 10.9863 -8.30078 L 38.4766 -34.6191 L 10.791 -61.6211 C 10.1074 -60.6445 9.76562 -58.8867 9.76562 -56.3477 L 9.76562 -13.9648 C 9.76562 -11.2305 10.2051 -9.32617 10.9863 -8.30078 Z M 89.502 -8.69141 C 90.2344 -9.66797 90.5762 -11.4258 90.5762 -13.9648 L 90.5762 -56.3477 C 90.5762 -58.6914 90.2832 -60.3516 89.6973 -61.2305 L 62.4023 -34.6191 Z M 19.7754 -4.00391 L 80.6641 -4.00391 C 84.082 -4.00391 86.377 -4.73633 87.5488 -6.15234 L 60.1562 -32.4219 L 57.0801 -29.3945 C 55.0293 -27.4902 52.7344 -26.416 50.4395 -26.416 C 48.1445 -26.416 45.8496 -27.4902 43.7988 -29.3945 L 40.7227 -32.4219 L 13.0371 -5.85938 C 14.209 -4.63867 16.4551 -4.00391 19.7754 -4.00391 Z"/>
  </g>
 </g>
</svg>
