<?xml version="1.0" encoding="UTF-8"?>
<!--Generator: Apple Native CoreSVG 123-->
<!DOCTYPE svg
PUBLIC "-//W3C//DTD SVG 1.1//EN"
       "http://www.w3.org/Graphics/SVG/1.1/DTD/svg11.dtd">
<svg version="1.1" xmlns="http://www.w3.org/2000/svg" xmlns:xlink="http://www.w3.org/1999/xlink" width="3300" height="2200">
 <!--glyph: "uni1004E3.medium", point size: 100.000000, font version: "Version 15.0d7e11", template writer version: "5"-->
 <g id="Notes">
  <rect height="2200" id="artboard" style="fill:white;opacity:1" width="3300" x="0" y="0"/>
  <line id="" style="fill:none;stroke:black;opacity:1;stroke-width:0.5;" x1="263" x2="3036" y1="292" y2="292"/>
  <text style="stroke:none;fill:black;font-family:-apple-system,&quot;SF Pro Display&quot;,&quot;SF Pro Text&quot;,Helvetica,sans-serif;font-weight:bold;" transform="matrix(1 0 0 1 263 322)">Weight/Scale Variations</text>
  <text style="stroke:none;fill:black;font-family:-apple-system,&quot;SF Pro Display&quot;,&quot;SF Pro Text&quot;,Helvetica,sans-serif;text-anchor:middle;" transform="matrix(1 0 0 1 559.711 322)">Ultralight</text>
  <text style="stroke:none;fill:black;font-family:-apple-system,&quot;SF Pro Display&quot;,&quot;SF Pro Text&quot;,Helvetica,sans-serif;text-anchor:middle;" transform="matrix(1 0 0 1 856.422 322)">Thin</text>
  <text style="stroke:none;fill:black;font-family:-apple-system,&quot;SF Pro Display&quot;,&quot;SF Pro Text&quot;,Helvetica,sans-serif;text-anchor:middle;" transform="matrix(1 0 0 1 1153.13 322)">Light</text>
  <text style="stroke:none;fill:black;font-family:-apple-system,&quot;SF Pro Display&quot;,&quot;SF Pro Text&quot;,Helvetica,sans-serif;text-anchor:middle;" transform="matrix(1 0 0 1 1449.84 322)">Regular</text>
  <text style="stroke:none;fill:black;font-family:-apple-system,&quot;SF Pro Display&quot;,&quot;SF Pro Text&quot;,Helvetica,sans-serif;text-anchor:middle;" transform="matrix(1 0 0 1 1746.56 322)">Medium</text>
  <text style="stroke:none;fill:black;font-family:-apple-system,&quot;SF Pro Display&quot;,&quot;SF Pro Text&quot;,Helvetica,sans-serif;text-anchor:middle;" transform="matrix(1 0 0 1 2043.27 322)">Semibold</text>
  <text style="stroke:none;fill:black;font-family:-apple-system,&quot;SF Pro Display&quot;,&quot;SF Pro Text&quot;,Helvetica,sans-serif;text-anchor:middle;" transform="matrix(1 0 0 1 2339.98 322)">Bold</text>
  <text style="stroke:none;fill:black;font-family:-apple-system,&quot;SF Pro Display&quot;,&quot;SF Pro Text&quot;,Helvetica,sans-serif;text-anchor:middle;" transform="matrix(1 0 0 1 2636.69 322)">Heavy</text>
  <text style="stroke:none;fill:black;font-family:-apple-system,&quot;SF Pro Display&quot;,&quot;SF Pro Text&quot;,Helvetica,sans-serif;text-anchor:middle;" transform="matrix(1 0 0 1 2933.4 322)">Black</text>
  <line id="" style="fill:none;stroke:black;opacity:1;stroke-width:0.5;" x1="263" x2="3036" y1="1903" y2="1903"/>
  <g id="" transform="matrix(1 0 0 1 263 1933)">
   <path d="M 9.24805 0.830078 C 13.5547 0.830078 17.1387 -2.74414 17.1387 -7.05078 C 17.1387 -11.3574 13.5449 -14.9316 9.23828 -14.9316 C 4.94141 -14.9316 1.36719 -11.3574 1.36719 -7.05078 C 1.36719 -2.74414 4.95117 0.830078 9.24805 0.830078 Z M 9.24805 -0.654297 C 5.70312 -0.654297 2.87109 -3.49609 2.87109 -7.05078 C 2.87109 -10.6055 5.69336 -13.4473 9.23828 -13.4473 C 12.793 -13.4473 15.6348 -10.6055 15.6445 -7.05078 C 15.6543 -3.49609 12.8027 -0.654297 9.24805 -0.654297 Z M 9.22852 -3.42773 C 9.69727 -3.42773 9.9707 -3.74023 9.9707 -4.25781 L 9.9707 -6.31836 L 12.1973 -6.31836 C 12.6953 -6.31836 13.0371 -6.57227 13.0371 -7.04102 C 13.0371 -7.51953 12.7148 -7.7832 12.1973 -7.7832 L 9.9707 -7.7832 L 9.9707 -10.0098 C 9.9707 -10.5273 9.69727 -10.8496 9.22852 -10.8496 C 8.75977 -10.8496 8.50586 -10.5078 8.50586 -10.0098 L 8.50586 -7.7832 L 6.29883 -7.7832 C 5.78125 -7.7832 5.44922 -7.51953 5.44922 -7.04102 C 5.44922 -6.57227 5.80078 -6.31836 6.29883 -6.31836 L 8.50586 -6.31836 L 8.50586 -4.25781 C 8.50586 -3.75977 8.75977 -3.42773 9.22852 -3.42773 Z"/>
  </g>
  <g id="" transform="matrix(1 0 0 1 281.506 1933)">
   <path d="M 11.709 2.91016 C 17.1582 2.91016 21.6699 -1.60156 21.6699 -7.05078 C 21.6699 -12.4902 17.1484 -17.0117 11.6992 -17.0117 C 6.25977 -17.0117 1.74805 -12.4902 1.74805 -7.05078 C 1.74805 -1.60156 6.26953 2.91016 11.709 2.91016 Z M 11.709 1.25 C 7.09961 1.25 3.41797 -2.44141 3.41797 -7.05078 C 3.41797 -11.6504 7.08984 -15.3516 11.6992 -15.3516 C 16.3086 -15.3516 20 -11.6504 20.0098 -7.05078 C 20.0195 -2.44141 16.3184 1.25 11.709 1.25 Z M 11.6895 -2.41211 C 12.207 -2.41211 12.5195 -2.77344 12.5195 -3.33984 L 12.5195 -6.23047 L 15.5762 -6.23047 C 16.123 -6.23047 16.5039 -6.51367 16.5039 -7.03125 C 16.5039 -7.55859 16.1426 -7.86133 15.5762 -7.86133 L 12.5195 -7.86133 L 12.5195 -10.9277 C 12.5195 -11.5039 12.207 -11.8555 11.6895 -11.8555 C 11.1719 -11.8555 10.8789 -11.4844 10.8789 -10.9277 L 10.8789 -7.86133 L 7.83203 -7.86133 C 7.26562 -7.86133 6.89453 -7.55859 6.89453 -7.03125 C 6.89453 -6.51367 7.28516 -6.23047 7.83203 -6.23047 L 10.8789 -6.23047 L 10.8789 -3.33984 C 10.8789 -2.79297 11.1719 -2.41211 11.6895 -2.41211 Z"/>
  </g>
  <g id="" transform="matrix(1 0 0 1 304.924 1933)">
   <path d="M 14.9707 5.67383 C 21.9336 5.67383 27.6953 -0.078125 27.6953 -7.04102 C 27.6953 -14.0039 21.9238 -19.7559 14.9609 -19.7559 C 8.00781 -19.7559 2.25586 -14.0039 2.25586 -7.04102 C 2.25586 -0.078125 8.01758 5.67383 14.9707 5.67383 Z M 14.9707 3.85742 C 8.93555 3.85742 4.08203 -1.00586 4.08203 -7.04102 C 4.08203 -13.0762 8.92578 -17.9395 14.9609 -17.9395 C 21.0059 -17.9395 25.8594 -13.0762 25.8691 -7.04102 C 25.8789 -1.00586 21.0156 3.85742 14.9707 3.85742 Z M 14.9512 -1.06445 C 15.5176 -1.06445 15.8691 -1.45508 15.8691 -2.06055 L 15.8691 -6.13281 L 20.1074 -6.13281 C 20.6934 -6.13281 21.1133 -6.46484 21.1133 -7.02148 C 21.1133 -7.59766 20.7227 -7.93945 20.1074 -7.93945 L 15.8691 -7.93945 L 15.8691 -12.1875 C 15.8691 -12.8027 15.5176 -13.1934 14.9512 -13.1934 C 14.3848 -13.1934 14.0625 -12.7832 14.0625 -12.1875 L 14.0625 -7.93945 L 9.83398 -7.93945 C 9.21875 -7.93945 8.80859 -7.59766 8.80859 -7.02148 C 8.80859 -6.46484 9.23828 -6.13281 9.83398 -6.13281 L 14.0625 -6.13281 L 14.0625 -2.06055 C 14.0625 -1.47461 14.3848 -1.06445 14.9512 -1.06445 Z"/>
  </g>
  <text style="stroke:none;fill:black;font-family:-apple-system,&quot;SF Pro Display&quot;,&quot;SF Pro Text&quot;,Helvetica,sans-serif;font-weight:bold;" transform="matrix(1 0 0 1 263 1953)">Design Variations</text>
  <text style="stroke:none;fill:black;font-family:-apple-system,&quot;SF Pro Display&quot;,&quot;SF Pro Text&quot;,Helvetica,sans-serif;" transform="matrix(1 0 0 1 263 1971)">Symbols are supported in up to nine weights and three scales.</text>
  <text style="stroke:none;fill:black;font-family:-apple-system,&quot;SF Pro Display&quot;,&quot;SF Pro Text&quot;,Helvetica,sans-serif;" transform="matrix(1 0 0 1 263 1989)">For optimal layout with text and other symbols, vertically align</text>
  <text style="stroke:none;fill:black;font-family:-apple-system,&quot;SF Pro Display&quot;,&quot;SF Pro Text&quot;,Helvetica,sans-serif;" transform="matrix(1 0 0 1 263 2007)">symbols with the adjacent text.</text>
  <rect height="14" id="" style="fill:#00AEEF;stroke:none;opacity:0.4;" width="3" x="776" y="1919"/>
  <g id="" transform="matrix(1 0 0 1 779 1933)">
   <path d="M 10.5273 0 L 12.373 0 L 7.17773 -14.0918 L 5.43945 -14.0918 L 0.244141 0 L 2.08984 0 L 3.50586 -4.0332 L 9.11133 -4.0332 Z M 6.2793 -11.9531 L 6.33789 -11.9531 L 8.59375 -5.52734 L 4.02344 -5.52734 Z"/>
  </g>
  <rect height="14" id="" style="fill:#00AEEF;stroke:none;opacity:0.4;" width="3" x="791.617" y="1919"/>
  <text style="stroke:none;fill:black;font-family:-apple-system,&quot;SF Pro Display&quot;,&quot;SF Pro Text&quot;,Helvetica,sans-serif;font-weight:bold;" transform="matrix(1 0 0 1 776 1953)">Margins</text>
  <text style="stroke:none;fill:black;font-family:-apple-system,&quot;SF Pro Display&quot;,&quot;SF Pro Text&quot;,Helvetica,sans-serif;" transform="matrix(1 0 0 1 776 1971)">Leading and trailing margins on the left and right side of each symbol</text>
  <text style="stroke:none;fill:black;font-family:-apple-system,&quot;SF Pro Display&quot;,&quot;SF Pro Text&quot;,Helvetica,sans-serif;" transform="matrix(1 0 0 1 776 1989)">can be adjusted by modifying the width of the blue rectangles.</text>
  <text style="stroke:none;fill:black;font-family:-apple-system,&quot;SF Pro Display&quot;,&quot;SF Pro Text&quot;,Helvetica,sans-serif;" transform="matrix(1 0 0 1 776 2007)">Modifications are automatically applied proportionally to all</text>
  <text style="stroke:none;fill:black;font-family:-apple-system,&quot;SF Pro Display&quot;,&quot;SF Pro Text&quot;,Helvetica,sans-serif;" transform="matrix(1 0 0 1 776 2025)">scales and weights.</text>
  <g id="" transform="matrix(1 0 0 1 1289 1933)">
   <path d="M 2.83203 3.11523 L 4.375 4.6582 C 5.22461 5.48828 6.19141 5.41992 7.06055 4.46289 L 17.2754 -6.66016 C 17.7051 -6.36719 18.0957 -6.37695 18.5645 -6.47461 L 19.6094 -6.68945 L 20.3027 -5.99609 L 20.2539 -5.47852 C 20.1855 -4.95117 20.3516 -4.53125 20.8496 -4.0332 L 21.6602 -3.22266 C 22.168 -2.71484 22.8223 -2.68555 23.3008 -3.16406 L 26.5527 -6.41602 C 27.0312 -6.89453 27.0117 -7.54883 26.5039 -8.05664 L 25.6836 -8.87695 C 25.1855 -9.375 24.7754 -9.55078 24.2383 -9.47266 L 23.7109 -9.41406 L 23.0566 -10.0781 L 23.3398 -11.2207 C 23.4863 -11.7871 23.3398 -12.2559 22.7148 -12.8613 L 20.3027 -15.2539 C 16.7578 -18.7793 12.2266 -18.6719 9.11133 -15.5371 C 8.69141 -15.1074 8.64258 -14.5215 8.91602 -14.0918 C 9.15039 -13.7207 9.62891 -13.4961 10.2734 -13.6621 C 11.7871 -14.043 13.3008 -13.9258 14.7852 -12.9199 L 14.1602 -11.3379 C 13.9258 -10.752 13.9453 -10.2734 14.1797 -9.83398 L 3.01758 0.439453 C 2.08008 1.30859 1.97266 2.25586 2.83203 3.11523 Z M 10.6738 -15.1465 C 13.3398 -17.1387 16.6504 -16.8262 19.0527 -14.4141 L 21.6797 -11.8066 C 21.9141 -11.5723 21.9434 -11.3867 21.8848 -11.0938 L 21.5039 -9.53125 L 23.0762 -7.95898 L 24.043 -8.04688 C 24.3262 -8.07617 24.4141 -8.05664 24.6387 -7.83203 L 25.2637 -7.20703 L 22.5098 -4.46289 L 21.8848 -5.07812 C 21.6602 -5.30273 21.6406 -5.40039 21.6699 -5.68359 L 21.7578 -6.64062 L 20.1953 -8.20312 L 18.5742 -7.89062 C 18.291 -7.83203 18.1445 -7.83203 17.9102 -8.07617 L 15.7324 -10.2539 C 15.5078 -10.4883 15.4785 -10.625 15.6055 -10.9473 L 16.5527 -13.2227 C 14.9512 -14.7559 12.8418 -15.6055 10.8008 -14.9512 C 10.7129 -14.9219 10.6445 -14.9414 10.6152 -14.9805 C 10.5859 -15.0293 10.5859 -15.0781 10.6738 -15.1465 Z M 4.10156 2.41211 C 3.61328 1.91406 3.78906 1.61133 4.12109 1.30859 L 15.0781 -8.80859 L 16.3086 -7.57812 L 6.15234 3.34961 C 5.84961 3.68164 5.46875 3.7793 5.06836 3.37891 Z"/>
  </g>
  <text style="stroke:none;fill:black;font-family:-apple-system,&quot;SF Pro Display&quot;,&quot;SF Pro Text&quot;,Helvetica,sans-serif;font-weight:bold;" transform="matrix(1 0 0 1 1289 1953)">Exporting</text>
  <text style="stroke:none;fill:black;font-family:-apple-system,&quot;SF Pro Display&quot;,&quot;SF Pro Text&quot;,Helvetica,sans-serif;" transform="matrix(1 0 0 1 1289 1971)">Symbols should be outlined when exporting to ensure the</text>
  <text style="stroke:none;fill:black;font-family:-apple-system,&quot;SF Pro Display&quot;,&quot;SF Pro Text&quot;,Helvetica,sans-serif;" transform="matrix(1 0 0 1 1289 1989)">design is preserved when submitting to Xcode.</text>
  <text id="template-version" style="stroke:none;fill:black;font-family:-apple-system,&quot;SF Pro Display&quot;,&quot;SF Pro Text&quot;,Helvetica,sans-serif;text-anchor:end;" transform="matrix(1 0 0 1 3036 1933)">Template v.1.0</text>
  <text style="stroke:none;fill:black;font-family:-apple-system,&quot;SF Pro Display&quot;,&quot;SF Pro Text&quot;,Helvetica,sans-serif;text-anchor:end;" transform="matrix(1 0 0 1 3036 1951)">Generated from person.circle</text>
  <text style="stroke:none;fill:black;font-family:-apple-system,&quot;SF Pro Display&quot;,&quot;SF Pro Text&quot;,Helvetica,sans-serif;text-anchor:end;" transform="matrix(1 0 0 1 3036 1969)">Typeset at 100 points</text>
  <text style="stroke:none;fill:black;font-family:-apple-system,&quot;SF Pro Display&quot;,&quot;SF Pro Text&quot;,Helvetica,sans-serif;" transform="matrix(1 0 0 1 263 726)">Small</text>
  <text style="stroke:none;fill:black;font-family:-apple-system,&quot;SF Pro Display&quot;,&quot;SF Pro Text&quot;,Helvetica,sans-serif;" transform="matrix(1 0 0 1 263 1156)">Medium</text>
  <text style="stroke:none;fill:black;font-family:-apple-system,&quot;SF Pro Display&quot;,&quot;SF Pro Text&quot;,Helvetica,sans-serif;" transform="matrix(1 0 0 1 263 1586)">Large</text>
 </g>
 <g id="Guides">
  <g id="H-reference" style="fill:#27AAE1;stroke:none;" transform="matrix(1 0 0 1 339 696)">
   <path d="M 54.9316 0 L 57.666 0 L 30.5664 -70.459 L 28.0762 -70.459 L 0.976562 0 L 3.66211 0 L 12.9395 -24.4629 L 45.7031 -24.4629 Z M 29.1992 -67.0898 L 29.4434 -67.0898 L 44.8242 -26.709 L 13.8184 -26.709 Z"/>
  </g>
  <line id="Baseline-S" style="fill:none;stroke:#27AAE1;opacity:1;stroke-width:0.577;" x1="263" x2="3036" y1="696" y2="696"/>
  <line id="Capline-S" style="fill:none;stroke:#27AAE1;opacity:1;stroke-width:0.577;" x1="263" x2="3036" y1="625.541" y2="625.541"/>
  <g id="H-reference" style="fill:#27AAE1;stroke:none;" transform="matrix(1 0 0 1 339 1126)">
   <path d="M 54.9316 0 L 57.666 0 L 30.5664 -70.459 L 28.0762 -70.459 L 0.976562 0 L 3.66211 0 L 12.9395 -24.4629 L 45.7031 -24.4629 Z M 29.1992 -67.0898 L 29.4434 -67.0898 L 44.8242 -26.709 L 13.8184 -26.709 Z"/>
  </g>
  <line id="Baseline-M" style="fill:none;stroke:#27AAE1;opacity:1;stroke-width:0.577;" x1="263" x2="3036" y1="1126" y2="1126"/>
  <line id="Capline-M" style="fill:none;stroke:#27AAE1;opacity:1;stroke-width:0.577;" x1="263" x2="3036" y1="1055.54" y2="1055.54"/>
  <g id="H-reference" style="fill:#27AAE1;stroke:none;" transform="matrix(1 0 0 1 339 1556)">
   <path d="M 54.9316 0 L 57.666 0 L 30.5664 -70.459 L 28.0762 -70.459 L 0.976562 0 L 3.66211 0 L 12.9395 -24.4629 L 45.7031 -24.4629 Z M 29.1992 -67.0898 L 29.4434 -67.0898 L 44.8242 -26.709 L 13.8184 -26.709 Z"/>
  </g>
  <line id="Baseline-L" style="fill:none;stroke:#27AAE1;opacity:1;stroke-width:0.577;" x1="263" x2="3036" y1="1556" y2="1556"/>
  <line id="Capline-L" style="fill:none;stroke:#27AAE1;opacity:1;stroke-width:0.577;" x1="263" x2="3036" y1="1485.54" y2="1485.54"/>
  <rect height="119.336" id="left-margin" style="fill:#00AEEF;stroke:none;opacity:0.4;" width="8.74023" x="1391.3" y="1030.79"/>
  <rect height="119.336" id="right-margin" style="fill:#00AEEF;stroke:none;opacity:0.4;" width="8.74023" x="1499.65" y="1030.79"/>
 </g>
 <g id="Symbols">
  <g id="Black-L" transform="matrix(1 0 0 1 2854.05 1556)">
   <path d="M 79.3457 32.8613 C 116.748 32.8613 147.412 2.19727 147.412 -35.2051 C 147.412 -72.6074 116.748 -103.271 79.2969 -103.271 C 41.8945 -103.271 11.2793 -72.6074 11.2793 -35.2051 C 11.2793 2.19727 41.9434 32.8613 79.3457 32.8613 Z M 79.3457 12.4023 C 52.9785 12.4023 31.7383 -8.83789 31.7383 -35.2051 C 31.7383 -61.5723 52.9297 -82.8125 79.2969 -82.8125 C 105.664 -82.8125 126.953 -61.5723 126.953 -35.2051 C 127.002 -8.83789 105.713 12.4023 79.3457 12.4023 Z M 79.3457 -38.916 C 87.8418 -38.8672 94.7266 -46.0449 94.7266 -55.6641 C 94.7266 -64.6484 87.8418 -72.0703 79.3457 -72.0703 C 70.8496 -72.0703 63.9648 -64.6484 63.9648 -55.6641 C 63.9648 -46.0449 70.8496 -38.916 79.3457 -38.916 Z M 54.5898 -5.41992 L 104.102 -5.41992 C 107.666 -5.41992 109.521 -8.05664 109.521 -11.2305 C 109.521 -17.7734 100.439 -34.1309 79.3457 -34.1309 C 58.252 -34.1309 49.1211 -17.7734 49.1211 -11.2305 C 49.1211 -8.05664 50.9766 -5.41992 54.5898 -5.41992 Z"/>
  </g>
  <g id="Heavy-L" transform="matrix(1 0 0 1 2558.39 1556)">
   <path d="M 78.2715 31.7871 C 115.088 31.7871 145.312 1.61133 145.312 -35.2051 C 145.312 -72.0215 115.039 -102.197 78.2715 -102.197 C 41.4551 -102.197 11.2793 -72.0215 11.2793 -35.2051 C 11.2793 1.61133 41.5039 31.7871 78.2715 31.7871 Z M 78.2715 14.0137 C 51.0254 14.0137 29.0527 -7.95898 29.0527 -35.2051 C 29.0527 -62.5 50.9766 -84.4727 78.2715 -84.4727 C 105.518 -84.4727 127.49 -62.5 127.539 -35.2051 C 127.539 -7.95898 105.566 14.0137 78.2715 14.0137 Z M 78.2715 -38.8184 C 86.9629 -38.7695 93.9453 -46.1426 93.9453 -55.9082 C 93.9453 -65.0391 86.9629 -72.6074 78.2715 -72.6074 C 69.6289 -72.6074 62.5977 -65.0391 62.5977 -55.9082 C 62.5977 -46.1426 69.6289 -38.8184 78.2715 -38.8184 Z M 52.2949 -4.78516 L 104.297 -4.78516 C 107.568 -4.78516 109.229 -7.12891 109.229 -10.0586 C 109.229 -16.748 99.7559 -33.6914 78.2715 -33.6914 C 56.8359 -33.6914 47.3145 -16.748 47.3145 -10.0586 C 47.3145 -7.12891 49.0234 -4.78516 52.2949 -4.78516 Z"/>
  </g>
  <g id="Bold-L" transform="matrix(1 0 0 1 2262.88 1556)">
   <path d="M 77.0996 30.6152 C 113.232 30.6152 142.92 0.878906 142.92 -35.2051 C 142.92 -71.3379 113.184 -101.025 77.0508 -101.025 C 40.9668 -101.025 11.2793 -71.3379 11.2793 -35.2051 C 11.2793 0.878906 41.0156 30.6152 77.0996 30.6152 Z M 77.0996 15.8691 C 48.8281 15.8691 26.0742 -6.93359 26.0742 -35.2051 C 26.0742 -63.4766 48.7793 -86.2793 77.0508 -86.2793 C 105.371 -86.2793 128.125 -63.4766 128.174 -35.2051 C 128.174 -6.93359 105.371 15.8691 77.0996 15.8691 Z M 77.0996 -38.7207 C 85.9375 -38.6719 93.1152 -46.1914 93.1152 -56.2012 C 93.1152 -65.5273 85.9375 -73.2422 77.0996 -73.2422 C 68.2617 -73.2422 61.1328 -65.5273 61.1328 -56.2012 C 61.1328 -46.1914 68.2617 -38.7695 77.0996 -38.7207 Z M 49.707 -4.05273 L 104.492 -4.05273 C 107.422 -4.05273 108.887 -6.10352 108.887 -8.78906 C 108.887 -15.625 99.0234 -33.2031 77.0996 -33.2031 C 55.1758 -33.2031 45.3125 -15.625 45.3125 -8.78906 C 45.3125 -6.10352 46.7773 -4.05273 49.707 -4.05273 Z"/>
  </g>
  <g id="Semibold-L" transform="matrix(1 0 0 1 1966.97 1556)">
   <path d="M 76.2695 29.7852 C 111.914 29.7852 141.309 0.439453 141.309 -35.2051 C 141.309 -70.8496 111.865 -100.244 76.2695 -100.244 C 40.625 -100.244 11.2793 -70.8496 11.2793 -35.2051 C 11.2793 0.439453 40.6738 29.7852 76.2695 29.7852 Z M 76.2695 17.0898 C 47.3145 17.0898 24.0234 -6.25 24.0234 -35.2051 C 24.0234 -64.209 47.2656 -87.5 76.2695 -87.5 C 105.225 -87.5 128.564 -64.209 128.613 -35.2051 C 128.662 -6.25 105.273 17.0898 76.2695 17.0898 Z M 76.2695 -38.623 C 85.3027 -38.5742 92.5293 -46.2402 92.5293 -56.3477 C 92.5293 -65.8203 85.3027 -73.6816 76.2695 -73.6816 C 67.2852 -73.6816 60.0586 -65.8203 60.0586 -56.3477 C 60.0586 -46.2402 67.2852 -38.6719 76.2695 -38.623 Z M 47.9492 -3.56445 L 104.639 -3.56445 C 107.324 -3.56445 108.691 -5.41992 108.691 -7.91016 C 108.691 -14.8438 98.4863 -32.8613 76.2695 -32.8613 C 54.1016 -32.8613 43.8965 -14.8438 43.8965 -7.91016 C 43.8965 -5.41992 45.2148 -3.56445 47.9492 -3.56445 Z"/>
  </g>
  <g id="Medium-L" transform="matrix(1 0 0 1 1670.87 1556)">
   <path d="M 75.6836 29.1992 C 110.938 29.1992 140.088 0.0488281 140.088 -35.2051 C 140.088 -70.459 110.889 -99.6094 75.6348 -99.6094 C 40.3809 -99.6094 11.2793 -70.459 11.2793 -35.2051 C 11.2793 0.0488281 40.3809 29.1992 75.6836 29.1992 Z M 75.6836 18.0664 C 46.1426 18.0664 22.4609 -5.71289 22.4609 -35.2051 C 22.4609 -64.6973 46.1426 -88.4766 75.6348 -88.4766 C 105.127 -88.4766 128.906 -64.6973 128.906 -35.2051 C 128.955 -5.71289 105.176 18.0664 75.6836 18.0664 Z M 75.6836 -38.5742 C 84.7656 -38.5254 92.0898 -46.2402 92.0898 -56.4941 C 92.0898 -66.0645 84.7656 -74.0234 75.6836 -74.0234 C 66.6016 -74.0234 59.2773 -66.0645 59.2773 -56.4941 C 59.2773 -46.2402 66.6016 -38.6719 75.6836 -38.5742 Z M 46.582 -3.17383 L 104.736 -3.17383 C 107.275 -3.17383 108.496 -4.88281 108.496 -7.22656 C 108.496 -14.2578 98.0957 -32.5684 75.6836 -32.5684 C 53.2227 -32.5684 42.8711 -14.2578 42.8711 -7.22656 C 42.8711 -4.88281 44.0918 -3.17383 46.582 -3.17383 Z"/>
  </g>
  <g id="Regular-L" transform="matrix(1 0 0 1 1374.97 1556)">
   <path d="M 74.8535 28.3691 C 109.668 28.3691 138.477 -0.390625 138.477 -35.2051 C 138.477 -70.0195 109.619 -98.7793 74.8047 -98.7793 C 40.0391 -98.7793 11.2793 -70.0195 11.2793 -35.2051 C 11.2793 -0.390625 40.0879 28.3691 74.8535 28.3691 Z M 74.8535 19.2871 C 44.6777 19.2871 20.4102 -5.0293 20.4102 -35.2051 C 20.4102 -65.3809 44.6289 -89.6973 74.8047 -89.6973 C 105.029 -89.6973 129.297 -65.3809 129.346 -35.2051 C 129.395 -5.0293 105.078 19.2871 74.8535 19.2871 Z M 74.8535 -38.5254 C 84.082 -38.4277 91.5039 -46.2891 91.5039 -56.6895 C 91.5039 -66.4062 84.082 -74.4629 74.8535 -74.4629 C 65.625 -74.4629 58.252 -66.4062 58.252 -56.6895 C 58.252 -46.2891 65.625 -38.5742 74.8535 -38.5254 Z M 44.8242 -2.68555 L 104.883 -2.68555 C 107.178 -2.68555 108.252 -4.19922 108.252 -6.34766 C 108.252 -13.4766 97.6074 -32.2266 74.8535 -32.2266 C 52.1484 -32.2266 41.4551 -13.4766 41.4551 -6.34766 C 41.4551 -4.19922 42.5293 -2.68555 44.8242 -2.68555 Z"/>
  </g>
  <g id="Light-L" transform="matrix(1 0 0 1 1079.18 1556)">
   <path d="M 73.9258 27.4902 C 108.301 27.4902 136.621 -0.830078 136.621 -35.1562 C 136.621 -69.5312 108.252 -97.8516 73.9258 -97.8516 C 39.5508 -97.8516 11.2793 -69.5312 11.2793 -35.1562 C 11.2793 -0.830078 39.5996 27.4902 73.9258 27.4902 Z M 73.9258 20.6055 C 43.1152 20.6055 18.2129 -4.3457 18.2129 -35.1562 C 18.2129 -66.0156 43.0664 -90.918 73.9258 -90.918 C 104.736 -90.918 129.688 -66.0156 129.736 -35.1562 C 129.736 -4.3457 104.785 20.6055 73.9258 20.6055 Z M 73.9258 -38.1348 C 83.3008 -38.0371 90.7715 -46.0449 90.7715 -56.543 C 90.7715 -66.4062 83.3008 -74.5605 73.9258 -74.5605 C 64.5996 -74.5605 57.1289 -66.4062 57.1289 -56.543 C 57.1289 -46.0449 64.5996 -38.2324 73.9258 -38.1348 Z M 42.9199 -2.19727 L 104.98 -2.19727 C 106.934 -2.19727 107.764 -3.4668 107.764 -5.32227 C 107.764 -12.6465 96.9727 -32.1777 73.9258 -32.1777 C 50.9277 -32.1777 40.0879 -12.6465 40.0879 -5.32227 C 40.0879 -3.4668 40.9668 -2.19727 42.9199 -2.19727 Z"/>
  </g>
  <g id="Thin-L" transform="matrix(1 0 0 1 783.693 1556)">
   <path d="M 72.7051 26.3184 C 106.494 26.3184 134.18 -1.36719 134.18 -35.1074 C 134.18 -68.8965 106.494 -96.582 72.7051 -96.582 C 38.9648 -96.582 11.2793 -68.8965 11.2793 -35.1074 C 11.2793 -1.36719 38.9648 26.3184 72.7051 26.3184 Z M 72.7051 22.3145 C 41.0156 22.3145 15.2832 -3.41797 15.2832 -35.1074 C 15.2832 -66.8457 41.0156 -92.5781 72.7051 -92.5781 C 104.395 -92.5781 130.176 -66.8457 130.176 -35.1074 C 130.176 -3.41797 104.443 22.3145 72.7051 22.3145 Z M 72.7051 -37.6465 C 82.2266 -37.5488 89.8438 -45.6543 89.8438 -56.3965 C 89.8438 -66.4062 82.2266 -74.707 72.7051 -74.707 C 63.1836 -74.707 55.5664 -66.4062 55.5664 -56.3965 C 55.5664 -45.6543 63.1836 -37.7441 72.7051 -37.6465 Z M 40.4297 -1.5625 L 105.029 -1.5625 C 106.592 -1.5625 107.129 -2.49023 107.129 -4.00391 C 107.129 -11.5723 96.1914 -32.0801 72.7051 -32.0801 C 49.2676 -32.0801 38.2812 -11.5723 38.2812 -4.00391 C 38.2812 -2.49023 38.8672 -1.5625 40.4297 -1.5625 Z"/>
  </g>
  <g id="Ultralight-L" transform="matrix(1 0 0 1 487.616 1556)">
   <path d="M 72.1191 25.7324 C 105.566 25.7324 132.91 -1.61133 132.91 -35.1074 C 132.91 -68.5547 105.566 -95.8984 72.1191 -95.8984 C 38.623 -95.8984 11.2793 -68.5547 11.2793 -35.1074 C 11.2793 -1.61133 38.623 25.7324 72.1191 25.7324 Z M 72.1191 23.2422 C 39.9414 23.2422 13.7695 -2.97852 13.7695 -35.1074 C 13.7695 -67.2363 39.9414 -93.4082 72.1191 -93.4082 C 104.248 -93.4082 130.42 -67.2363 130.42 -35.1074 C 130.42 -2.97852 104.248 23.2422 72.1191 23.2422 Z M 72.1191 -37.4023 C 81.6895 -37.3047 89.3555 -45.459 89.3555 -56.2988 C 89.3555 -66.4062 81.6895 -74.8047 72.1191 -74.8047 C 62.5 -74.8047 54.834 -66.4062 54.834 -56.2988 C 54.834 -45.459 62.5 -37.5 72.1191 -37.4023 Z M 39.1113 -1.26953 L 105.078 -1.26953 C 106.396 -1.26953 106.836 -1.95312 106.836 -3.32031 C 106.836 -11.0352 95.752 -32.0312 72.1191 -32.0312 C 48.4375 -32.0312 37.3535 -11.0352 37.3535 -3.32031 C 37.3535 -1.95312 37.793 -1.26953 39.1113 -1.26953 Z"/>
  </g>
  <g id="Black-M" transform="matrix(1 0 0 1 2870.97 1126)">
   <path d="M 62.4023 18.457 C 91.9922 18.457 116.113 -5.61523 116.113 -35.2051 C 116.113 -64.7949 91.9922 -88.8672 62.4023 -88.8672 C 32.8125 -88.8672 8.74023 -64.7949 8.74023 -35.2051 C 8.74023 -5.61523 32.8125 18.457 62.4023 18.457 Z M 62.4023 0.195312 C 42.8711 0.195312 27.002 -15.625 27.002 -35.2051 C 27.002 -54.7363 42.8711 -70.6055 62.4023 -70.6055 C 81.9824 -70.6055 97.8027 -54.7363 97.8027 -35.2051 C 97.8027 -15.625 81.9824 0.195312 62.4023 0.195312 Z M 62.4023 -37.9883 C 68.7988 -37.9883 74.0234 -43.4082 74.0234 -50.6836 C 74.0234 -57.4707 68.7988 -63.0859 62.4023 -63.0859 C 56.0059 -63.0859 50.7812 -57.4707 50.7812 -50.6836 C 50.7812 -43.4082 56.0059 -37.9883 62.4023 -37.9883 Z M 44.3848 -12.7441 L 80.4688 -12.7441 C 83.4473 -12.7441 85.0586 -14.9902 85.0586 -17.627 C 85.0586 -22.6074 78.418 -34.9121 62.4023 -34.9121 C 46.4355 -34.9121 39.7949 -22.6074 39.7949 -17.627 C 39.7949 -14.9902 41.3574 -12.7441 44.3848 -12.7441 Z"/>
  </g>
  <g id="Heavy-M" transform="matrix(1 0 0 1 2575.19 1126)">
   <path d="M 61.5234 17.5781 C 90.5273 17.5781 114.258 -6.15234 114.258 -35.2051 C 114.258 -64.2578 90.5273 -87.9883 61.4746 -87.9883 C 32.4707 -87.9883 8.74023 -64.2578 8.74023 -35.2051 C 8.74023 -6.15234 32.4707 17.5781 61.5234 17.5781 Z M 61.5234 1.66016 C 41.1133 1.66016 24.6582 -14.8438 24.6582 -35.2051 C 24.6582 -55.5664 41.1133 -72.0703 61.4746 -72.0703 C 81.8848 -72.0703 98.3398 -55.5664 98.3398 -35.2051 C 98.3398 -14.8438 81.8848 1.66016 61.5234 1.66016 Z M 61.5234 -37.9883 C 68.0664 -37.9883 73.3887 -43.5547 73.3887 -50.9766 C 73.3887 -57.9102 68.0664 -63.6719 61.5234 -63.6719 C 54.9316 -63.6719 49.6094 -57.9102 49.6094 -50.9766 C 49.6094 -43.5547 54.9316 -37.9883 61.5234 -37.9883 Z M 42.334 -12.1582 L 80.6641 -12.1582 C 83.3984 -12.1582 84.8145 -14.209 84.8145 -16.6504 C 84.8145 -21.7285 77.832 -34.4727 61.5234 -34.4727 C 45.166 -34.4727 38.1836 -21.7285 38.1836 -16.6504 C 38.1836 -14.209 39.5996 -12.1582 42.334 -12.1582 Z"/>
  </g>
  <g id="Bold-M" transform="matrix(1 0 0 1 2279.5 1126)">
   <path d="M 60.498 16.5039 C 88.8672 16.5039 112.207 -6.78711 112.207 -35.2051 C 112.207 -63.623 88.8672 -86.9629 60.4492 -86.9629 C 32.0312 -86.9629 8.74023 -63.623 8.74023 -35.2051 C 8.74023 -6.78711 32.0801 16.5039 60.498 16.5039 Z M 60.498 3.22266 C 39.1602 3.22266 22.0703 -13.916 22.0703 -35.2051 C 22.0703 -56.4941 39.1602 -73.6816 60.4492 -73.6816 C 81.7383 -73.6816 98.9258 -56.4941 98.9258 -35.2051 C 98.9746 -13.916 81.7871 3.22266 60.498 3.22266 Z M 60.498 -37.9883 C 67.2363 -37.9395 72.6562 -43.7012 72.6562 -51.3184 C 72.6562 -58.3984 67.2363 -64.3066 60.498 -64.3066 C 53.7598 -64.3066 48.291 -58.3984 48.291 -51.3184 C 48.291 -43.7012 53.7598 -38.0371 60.498 -37.9883 Z M 40.0879 -11.5234 L 80.8594 -11.5234 C 83.3496 -11.5234 84.6191 -13.2812 84.6191 -15.5273 C 84.6191 -20.752 77.1973 -33.9355 60.498 -33.9355 C 43.75 -33.9355 36.377 -20.752 36.377 -15.5273 C 36.377 -13.2812 37.5977 -11.5234 40.0879 -11.5234 Z"/>
  </g>
  <g id="Semibold-M" transform="matrix(1 0 0 1 1983.5 1126)">
   <path d="M 59.7656 15.8203 C 87.7441 15.8203 110.791 -7.22656 110.791 -35.2051 C 110.791 -63.1836 87.6953 -86.2793 59.7656 -86.2793 C 31.7871 -86.2793 8.74023 -63.1836 8.74023 -35.2051 C 8.74023 -7.22656 31.7871 15.8203 59.7656 15.8203 Z M 59.7656 4.3457 C 37.8418 4.3457 20.2637 -13.2812 20.2637 -35.2051 C 20.2637 -57.1289 37.793 -74.8047 59.7656 -74.8047 C 81.6895 -74.8047 99.3164 -57.1289 99.3652 -35.2051 C 99.3652 -13.2812 81.6895 4.3457 59.7656 4.3457 Z M 59.7656 -37.9883 C 66.6504 -37.9395 72.168 -43.7988 72.168 -51.5137 C 72.168 -58.7891 66.6504 -64.7949 59.7656 -64.7949 C 52.9297 -64.7949 47.3633 -58.7891 47.3633 -51.5137 C 47.3633 -43.7988 52.9297 -38.0371 59.7656 -37.9883 Z M 38.5254 -11.084 L 81.0059 -11.084 C 83.3008 -11.084 84.4727 -12.6953 84.4727 -14.7461 C 84.4727 -20.0195 76.7578 -33.5938 59.7656 -33.5938 C 42.8223 -33.5938 35.1074 -20.0195 35.1074 -14.7461 C 35.1074 -12.6953 36.2793 -11.084 38.5254 -11.084 Z"/>
  </g>
  <g id="Medium-M" transform="matrix(1 0 0 1 1687.3 1126)">
   <path d="M 59.2285 15.2832 C 86.9141 15.2832 109.766 -7.56836 109.766 -35.2051 C 109.766 -62.8906 86.8652 -85.7422 59.1797 -85.7422 C 31.543 -85.7422 8.74023 -62.8906 8.74023 -35.2051 C 8.74023 -7.56836 31.5918 15.2832 59.2285 15.2832 Z M 59.2285 5.17578 C 36.8164 5.17578 18.8965 -12.8418 18.8965 -35.2051 C 18.8965 -57.6172 36.8164 -75.6348 59.1797 -75.6348 C 81.5918 -75.6348 99.6094 -57.6172 99.6582 -35.2051 C 99.707 -12.8418 81.6406 5.17578 59.2285 5.17578 Z M 59.2285 -37.9883 C 66.2109 -37.9395 71.7773 -43.8477 71.7773 -51.709 C 71.7773 -59.0332 66.2109 -65.1367 59.2285 -65.1367 C 52.2949 -65.1367 46.6797 -59.0332 46.6797 -51.709 C 46.6797 -43.8477 52.2949 -38.0371 59.2285 -37.9883 Z M 37.3535 -10.7422 L 81.1035 -10.7422 C 83.252 -10.7422 84.3262 -12.207 84.3262 -14.1602 C 84.3262 -19.5312 76.416 -33.3008 59.2285 -33.3008 C 42.0898 -33.3008 34.1797 -19.5312 34.1797 -14.1602 C 34.1797 -12.207 35.2051 -10.7422 37.3535 -10.7422 Z"/>
  </g>
  <g id="Regular-M" transform="matrix(1 0 0 1 1391.3 1126)">
   <path d="M 58.5449 14.5508 C 85.791 14.5508 108.35 -8.00781 108.35 -35.2539 C 108.35 -62.4512 85.7422 -85.0586 58.4961 -85.0586 C 31.2988 -85.0586 8.74023 -62.4512 8.74023 -35.2539 C 8.74023 -8.00781 31.3477 14.5508 58.5449 14.5508 Z M 58.5449 6.25 C 35.498 6.25 17.0898 -12.207 17.0898 -35.2539 C 17.0898 -58.252 35.4492 -76.7578 58.4961 -76.7578 C 81.543 -76.7578 100 -58.252 100.049 -35.2539 C 100.098 -12.207 81.5918 6.25 58.5449 6.25 Z M 58.5449 -37.9883 C 65.625 -37.9395 71.2891 -43.9941 71.2891 -51.9531 C 71.2891 -59.375 65.625 -65.5762 58.5449 -65.5762 C 51.4648 -65.5762 45.8008 -59.375 45.8008 -51.9531 C 45.8008 -43.9941 51.4648 -38.0371 58.5449 -37.9883 Z M 35.8398 -10.3027 L 81.25 -10.3027 C 83.2031 -10.3027 84.1797 -11.6211 84.1797 -13.3789 C 84.1797 -18.8477 75.9766 -32.959 58.5449 -32.959 C 41.1133 -32.959 32.9102 -18.8477 32.9102 -13.3789 C 32.9102 -11.6211 33.8867 -10.3027 35.8398 -10.3027 Z"/>
  </g>
  <g id="Light-M" transform="matrix(1 0 0 1 1095.42 1126)">
   <path d="M 57.7148 13.7695 C 84.5215 13.7695 106.689 -8.39844 106.689 -35.2051 C 106.689 -62.0117 84.5215 -84.1797 57.666 -84.1797 C 30.8594 -84.1797 8.74023 -62.0117 8.74023 -35.2051 C 8.74023 -8.39844 30.9082 13.7695 57.7148 13.7695 Z M 57.7148 7.4707 C 34.082 7.4707 15.0879 -11.5723 15.0879 -35.2051 C 15.0879 -58.8379 34.082 -77.832 57.666 -77.832 C 81.2988 -77.832 100.342 -58.8379 100.391 -35.2051 C 100.391 -11.5723 81.3477 7.4707 57.7148 7.4707 Z M 57.7148 -37.6465 C 64.8926 -37.5977 70.6543 -43.7012 70.6543 -51.8066 C 70.6543 -59.375 64.8926 -65.6738 57.7148 -65.6738 C 50.5371 -65.6738 44.7754 -59.375 44.7754 -51.8066 C 44.7754 -43.7012 50.5371 -37.6953 57.7148 -37.6465 Z M 34.1309 -9.86328 L 81.2988 -9.86328 C 82.959 -9.86328 83.7402 -10.9375 83.7402 -12.5 C 83.7402 -18.1152 75.4395 -32.9102 57.7148 -32.9102 C 39.9902 -32.9102 31.6895 -18.1152 31.6895 -12.5 C 31.6895 -10.9375 32.4707 -9.86328 34.1309 -9.86328 Z"/>
  </g>
  <g id="Thin-M" transform="matrix(1 0 0 1 799.806 1126)">
   <path d="M 56.6406 12.7441 C 82.9102 12.7441 104.492 -8.83789 104.492 -35.1562 C 104.492 -61.4746 82.9102 -83.0566 56.5918 -83.0566 C 30.3223 -83.0566 8.74023 -61.4746 8.74023 -35.1562 C 8.74023 -8.83789 30.3223 12.7441 56.6406 12.7441 Z M 56.6406 8.98438 C 32.2266 8.98438 12.4512 -10.791 12.4512 -35.1562 C 12.4512 -59.5215 32.2266 -79.2969 56.5918 -79.2969 C 81.0059 -79.2969 100.781 -59.5215 100.781 -35.1562 C 100.781 -10.791 81.0059 8.98438 56.6406 8.98438 Z M 56.6406 -37.207 C 63.9648 -37.1582 69.8242 -43.4082 69.8242 -51.6602 C 69.8242 -59.375 63.9648 -65.8203 56.6406 -65.8203 C 49.2676 -65.8203 43.4082 -59.375 43.4082 -51.6602 C 43.4082 -43.4082 49.2676 -37.2559 56.6406 -37.207 Z M 31.8848 -9.27734 L 81.3965 -9.27734 C 82.666 -9.27734 83.1543 -10.0586 83.1543 -11.3281 C 83.1543 -17.1387 74.707 -32.8125 56.6406 -32.8125 C 38.5254 -32.8125 30.0781 -17.1387 30.0781 -11.3281 C 30.0781 -10.0586 30.5664 -9.27734 31.8848 -9.27734 Z"/>
  </g>
  <g id="Ultralight-M" transform="matrix(1 0 0 1 503.656 1126)">
   <path d="M 56.0547 12.207 C 82.0801 12.207 103.369 -9.08203 103.369 -35.1562 C 103.369 -61.1816 82.0801 -82.4707 56.0547 -82.4707 C 30.0293 -82.4707 8.74023 -61.1816 8.74023 -35.1562 C 8.74023 -9.08203 30.0293 12.207 56.0547 12.207 Z M 56.0547 9.81445 C 31.2988 9.81445 11.1328 -10.3516 11.1328 -35.1562 C 11.1328 -59.9121 31.2988 -80.0781 56.0547 -80.0781 C 80.8594 -80.0781 100.977 -59.9121 100.977 -35.1562 C 100.977 -10.3516 80.8594 9.81445 56.0547 9.81445 Z M 56.0547 -37.0117 C 63.4766 -36.9141 69.4336 -43.2129 69.4336 -51.5625 C 69.4336 -59.375 63.4766 -65.8691 56.0547 -65.8691 C 48.6328 -65.8691 42.7246 -59.375 42.7246 -51.5625 C 42.7246 -43.2129 48.6328 -37.0605 56.0547 -37.0117 Z M 30.7129 -8.98438 L 81.3965 -8.98438 C 82.5195 -8.98438 82.8613 -9.61914 82.8613 -10.7422 C 82.8613 -16.6504 74.3164 -32.7637 56.0547 -32.7637 C 37.793 -32.7637 29.248 -16.6504 29.248 -10.7422 C 29.248 -9.61914 29.5898 -8.98438 30.7129 -8.98438 Z"/>
  </g>
  <g id="Black-S" transform="matrix(1 0 0 1 2884.57 696)">
   <path d="M 48.8281 6.78711 C 71.9727 6.78711 90.8203 -12.0605 90.8203 -35.2051 C 90.8203 -58.3496 71.9727 -77.1973 48.8281 -77.1973 C 25.6836 -77.1973 6.83594 -58.3496 6.83594 -35.2051 C 6.83594 -12.0605 25.6836 6.78711 48.8281 6.78711 Z M 48.8281 -7.37305 C 33.4473 -7.37305 20.9961 -19.8242 20.9961 -35.2051 C 20.9961 -50.5859 33.4473 -63.0371 48.8281 -63.0371 C 64.209 -63.0371 76.6602 -50.5859 76.6602 -35.2051 C 76.6602 -19.8242 64.209 -7.37305 48.8281 -7.37305 Z M 48.8281 -37.4023 C 53.8574 -37.4023 57.959 -41.6504 57.959 -47.3633 C 57.959 -52.6855 53.8574 -57.0801 48.8281 -57.0801 C 43.7988 -57.0801 39.6973 -52.6855 39.6973 -47.3633 C 39.6973 -41.6504 43.7988 -37.4023 48.8281 -37.4023 Z M 34.6191 -17.5781 L 63.0371 -17.5781 C 65.3809 -17.5781 66.6016 -19.3359 66.6016 -21.3867 C 66.6016 -25.293 61.377 -34.9609 48.8281 -34.9609 C 36.2793 -34.9609 31.0547 -25.293 31.0547 -21.3867 C 31.0547 -19.3359 32.2754 -17.5781 34.6191 -17.5781 Z"/>
  </g>
  <g id="Heavy-S" transform="matrix(1 0 0 1 2588.47 696)">
   <path d="M 48.2422 6.15234 C 70.9961 6.15234 89.5996 -12.4512 89.5996 -35.2051 C 89.5996 -57.959 70.9961 -76.6113 48.1934 -76.6113 C 25.4395 -76.6113 6.83594 -57.959 6.83594 -35.2051 C 6.83594 -12.4512 25.4395 6.15234 48.2422 6.15234 Z M 48.2422 -6.39648 C 32.2754 -6.39648 19.4336 -19.2871 19.4336 -35.2051 C 19.4336 -51.1719 32.2754 -64.0137 48.1934 -64.0137 C 64.1602 -64.0137 77.002 -51.1719 77.0508 -35.2051 C 77.0508 -19.2871 64.1602 -6.39648 48.2422 -6.39648 Z M 48.2422 -37.4512 C 53.3691 -37.4023 57.5195 -41.7969 57.5195 -47.6074 C 57.5195 -53.0273 53.3691 -57.5195 48.2422 -57.5195 C 43.0664 -57.5195 38.916 -53.0273 38.916 -47.6074 C 38.916 -41.7969 43.0664 -37.4512 48.2422 -37.4512 Z M 33.252 -17.1875 L 63.1836 -17.1875 C 65.3809 -17.1875 66.5039 -18.7988 66.5039 -20.7031 C 66.5039 -24.707 60.9863 -34.6191 48.2422 -34.6191 C 35.4492 -34.6191 29.9316 -24.707 29.9316 -20.7031 C 29.9316 -18.7988 31.1035 -17.1875 33.252 -17.1875 Z"/>
  </g>
  <g id="Bold-S" transform="matrix(1 0 0 1 2292.44 696)">
   <path d="M 47.5586 5.46875 C 69.873 5.46875 88.2324 -12.8906 88.2324 -35.2051 C 88.2324 -57.5684 69.873 -75.9277 47.5098 -75.9277 C 25.1953 -75.9277 6.83594 -57.5684 6.83594 -35.2051 C 6.83594 -12.8906 25.1953 5.46875 47.5586 5.46875 Z M 47.5586 -5.32227 C 30.957 -5.32227 17.6758 -18.6523 17.6758 -35.2051 C 17.6758 -51.8066 30.957 -65.1367 47.5098 -65.1367 C 64.1113 -65.1367 77.4414 -51.8066 77.4414 -35.2051 C 77.4414 -18.6523 64.1113 -5.32227 47.5586 -5.32227 Z M 47.5586 -37.4512 C 52.7832 -37.4512 57.0801 -41.9434 57.0801 -47.8516 C 57.0801 -53.418 52.7832 -58.0078 47.5586 -58.0078 C 42.2852 -58.0078 38.0371 -53.418 38.0371 -47.8516 C 38.0371 -41.9434 42.2852 -37.5 47.5586 -37.4512 Z M 31.7383 -16.748 L 63.3301 -16.748 C 65.332 -16.748 66.3574 -18.1641 66.3574 -19.9707 C 66.3574 -24.0234 60.5957 -34.2285 47.5586 -34.2285 C 34.5215 -34.2285 28.7109 -24.0234 28.7109 -19.9707 C 28.7109 -18.1641 29.7363 -16.748 31.7383 -16.748 Z"/>
  </g>
  <g id="Semibold-S" transform="matrix(1 0 0 1 1996.2 696)">
   <path d="M 47.0703 4.98047 C 69.0918 4.98047 87.3047 -13.1836 87.3047 -35.2539 C 87.3047 -57.2754 69.0918 -75.4883 47.0215 -75.4883 C 25 -75.4883 6.83594 -57.2754 6.83594 -35.2539 C 6.83594 -13.1836 25.0488 4.98047 47.0703 4.98047 Z M 47.0703 -4.58984 C 30.0781 -4.58984 16.4551 -18.2129 16.4551 -35.2539 C 16.4551 -52.2461 30.0293 -65.8691 47.0215 -65.8691 C 64.0625 -65.8691 77.6855 -52.2461 77.7344 -35.2539 C 77.7344 -18.2129 64.0625 -4.58984 47.0703 -4.58984 Z M 47.0703 -37.5 C 52.3926 -37.4512 56.7383 -42.041 56.7383 -48.0469 C 56.7383 -53.6621 52.3926 -58.3496 47.0703 -58.3496 C 41.748 -58.3496 37.4023 -53.6621 37.4023 -48.0469 C 37.4023 -42.041 41.748 -37.5488 47.0703 -37.5 Z M 30.7129 -16.4551 L 63.4277 -16.4551 C 65.332 -16.4551 66.3086 -17.7734 66.3086 -19.4824 C 66.3086 -23.5352 60.3027 -33.9355 47.0703 -33.9355 C 33.8867 -33.9355 27.8809 -23.5352 27.8809 -19.4824 C 27.8809 -17.7734 28.8086 -16.4551 30.7129 -16.4551 Z"/>
  </g>
  <g id="Medium-S" transform="matrix(1 0 0 1 1699.83 696)">
   <path d="M 46.7285 4.63867 C 68.5547 4.63867 86.6211 -13.4277 86.6211 -35.2539 C 86.6211 -57.0312 68.5059 -75.1465 46.6797 -75.1465 C 24.8535 -75.1465 6.83594 -57.0312 6.83594 -35.2539 C 6.83594 -13.4277 24.9023 4.63867 46.7285 4.63867 Z M 46.7285 -4.00391 C 29.3945 -4.00391 15.5273 -17.9199 15.5273 -35.2539 C 15.5273 -52.5879 29.3457 -66.4551 46.6797 -66.4551 C 64.0137 -66.4551 77.8809 -52.5879 77.9297 -35.2539 C 77.9785 -17.9199 64.0625 -4.00391 46.7285 -4.00391 Z M 46.7285 -37.5 C 52.1484 -37.5 56.4941 -42.0898 56.4941 -48.1934 C 56.4941 -53.9062 52.1484 -58.5938 46.7285 -58.5938 C 41.3086 -58.5938 36.9629 -53.9062 36.9629 -48.1934 C 36.9629 -42.0898 41.3086 -37.5488 46.7285 -37.5 Z M 29.9316 -16.2109 L 63.5254 -16.2109 C 65.332 -16.2109 66.2109 -17.4316 66.2109 -19.0918 C 66.2109 -23.1934 60.0586 -33.7402 46.7285 -33.7402 C 33.3984 -33.7402 27.1973 -23.1934 27.1973 -19.0918 C 27.1973 -17.4316 28.125 -16.2109 29.9316 -16.2109 Z"/>
  </g>
  <g id="Regular-S" transform="matrix(1 0 0 1 1403.58 696)">
   <path d="M 46.2402 4.15039 C 67.7734 4.15039 85.6934 -13.7207 85.6934 -35.2539 C 85.6934 -56.7871 67.7246 -74.6582 46.1914 -74.6582 C 24.707 -74.6582 6.83594 -56.7871 6.83594 -35.2539 C 6.83594 -13.7207 24.7559 4.15039 46.2402 4.15039 Z M 46.2402 -3.27148 C 28.5156 -3.27148 14.3555 -17.4805 14.3555 -35.2539 C 14.3555 -53.0273 28.4668 -67.2363 46.1914 -67.2363 C 63.9648 -67.2363 78.1738 -53.0273 78.2227 -35.2539 C 78.2715 -17.4805 64.0137 -3.27148 46.2402 -3.27148 Z M 46.2402 -37.5488 C 51.7578 -37.5 56.1523 -42.1875 56.1523 -48.3887 C 56.1523 -54.1504 51.7578 -58.9355 46.2402 -58.9355 C 40.7715 -58.9355 36.377 -54.1504 36.377 -48.3887 C 36.377 -42.1875 40.7715 -37.5977 46.2402 -37.5488 Z M 28.9062 -15.918 L 63.623 -15.918 C 65.2832 -15.918 66.1621 -17.041 66.1621 -18.5547 C 66.1621 -22.7539 59.7656 -33.4961 46.2402 -33.4961 C 32.7148 -33.4961 26.3672 -22.7539 26.3672 -18.5547 C 26.3672 -17.041 27.1973 -15.918 28.9062 -15.918 Z"/>
  </g>
  <g id="Light-S" transform="matrix(1 0 0 1 1107.6 696)">
   <path d="M 45.5078 3.4668 C 66.6992 3.4668 84.2285 -14.0625 84.2285 -35.2051 C 84.2285 -56.3965 66.6504 -73.9258 45.5078 -73.9258 C 24.3164 -73.9258 6.83594 -56.3965 6.83594 -35.2051 C 6.83594 -14.0625 24.3652 3.4668 45.5078 3.4668 Z M 45.5078 -2.24609 C 27.2461 -2.24609 12.5977 -16.9434 12.5977 -35.2051 C 12.5977 -53.5156 27.1973 -68.2129 45.5078 -68.2129 C 63.7695 -68.2129 78.4668 -53.5156 78.5156 -35.2051 C 78.5156 -16.9434 63.8184 -2.24609 45.5078 -2.24609 Z M 45.5078 -37.2559 C 51.123 -37.207 55.6152 -41.9922 55.6152 -48.291 C 55.6152 -54.1504 51.123 -59.0332 45.5078 -59.0332 C 39.9414 -59.0332 35.4492 -54.1504 35.4492 -48.291 C 35.4492 -41.9922 39.9414 -37.3047 45.5078 -37.2559 Z M 27.3926 -15.5273 L 63.6719 -15.5273 C 65.0879 -15.5273 65.7715 -16.4551 65.7715 -17.7734 C 65.7715 -22.0703 59.2773 -33.4473 45.5078 -33.4473 C 31.7383 -33.4473 25.293 -22.0703 25.293 -17.7734 C 25.293 -16.4551 25.9766 -15.5273 27.3926 -15.5273 Z"/>
  </g>
  <g id="Thin-S" transform="matrix(1 0 0 1 811.867 696)">
   <path d="M 44.5801 2.53906 C 65.2832 2.53906 82.2754 -14.4531 82.2754 -35.2051 C 82.2754 -55.9082 65.2344 -72.9004 44.5312 -72.9004 C 23.8281 -72.9004 6.83594 -55.9082 6.83594 -35.2051 C 6.83594 -14.4531 23.877 2.53906 44.5801 2.53906 Z M 44.5801 -0.878906 C 25.5859 -0.878906 10.2539 -16.2109 10.2539 -35.2051 C 10.2539 -54.1504 25.5859 -69.4824 44.5312 -69.4824 C 63.5254 -69.4824 78.8574 -54.1504 78.8574 -35.2051 C 78.8574 -16.2109 63.5254 -0.878906 44.5801 -0.878906 Z M 44.5801 -36.8652 C 50.293 -36.8164 54.8828 -41.6992 54.8828 -48.1445 C 54.8828 -54.1504 50.293 -59.1309 44.5801 -59.1309 C 38.8184 -59.1309 34.2773 -54.1504 34.2773 -48.1445 C 34.2773 -41.6992 38.8184 -36.9141 44.5801 -36.8652 Z M 25.3906 -15.0391 L 63.7207 -15.0391 C 64.8438 -15.0391 65.2832 -15.6738 65.2832 -16.748 C 65.2832 -21.2402 58.6426 -33.3496 44.5801 -33.3496 C 30.4688 -33.3496 23.877 -21.2402 23.877 -16.748 C 23.877 -15.6738 24.3164 -15.0391 25.3906 -15.0391 Z"/>
  </g>
  <g id="Ultralight-S" transform="matrix(1 0 0 1 515.644 696)">
   <path d="M 44.043 2.05078 C 64.502 2.05078 81.2988 -14.6973 81.2988 -35.1562 C 81.2988 -55.6152 64.502 -72.3633 44.043 -72.3633 C 23.584 -72.3633 6.83594 -55.6152 6.83594 -35.1562 C 6.83594 -14.6973 23.584 2.05078 44.043 2.05078 Z M 44.043 -0.146484 C 24.7559 -0.146484 9.08203 -15.8691 9.08203 -35.1562 C 9.08203 -54.4434 24.7559 -70.166 44.043 -70.166 C 63.3789 -70.166 79.0527 -54.4434 79.0527 -35.1562 C 79.0527 -15.8691 63.3789 -0.146484 44.043 -0.146484 Z M 44.043 -36.6699 C 49.8535 -36.6211 54.4922 -41.5527 54.4922 -48.0469 C 54.4922 -54.1504 49.8535 -59.2285 44.043 -59.2285 C 38.2812 -59.2285 33.6426 -54.1504 33.6426 -48.0469 C 33.6426 -41.5527 38.2812 -36.7188 44.043 -36.6699 Z M 24.3652 -14.7461 L 63.7695 -14.7461 C 64.6973 -14.7461 64.9902 -15.2832 64.9902 -16.2109 C 64.9902 -20.8008 58.3496 -33.3008 44.043 -33.3008 C 29.7852 -33.3008 23.0957 -20.8008 23.0957 -16.2109 C 23.0957 -15.2832 23.4375 -14.7461 24.3652 -14.7461 Z"/>
  </g>
 </g>
</svg>
